<?xml version="1.0" encoding="UTF-8"?>
<svg version="1.1" xmlns="http://www.w3.org/2000/svg" width="1280" height="683">
<path d="M0 0 C51.8948732 -1.089974 99.5975438 19.90638569 137.40625 54.578125 C155.4770198 72.00048965 169.28348559 95.04444666 170.03515625 120.7421875 C169.00667117 145.56607741 157.73120802 166.03783274 139.8203125 182.83984375 C132.43112994 189.43799292 124.44517771 194.66443835 115.97021484 199.74902344 C110.90179166 202.83434209 105.9233169 206.0674759 100.92919922 209.27124023 C100.16365723 209.75794189 99.39811523 210.24464355 98.609375 210.74609375 C97.93092529 211.17994385 97.25247559 211.61379395 96.5534668 212.06079102 C94.72265625 213.1171875 94.72265625 213.1171875 91.72265625 214.1171875 C92.37492187 215.03757812 93.0271875 215.95796875 93.69921875 216.90625 C106.38800304 235.14865499 114.46437219 255.18725173 111.19140625 277.78515625 C107.37891718 296.78544146 98.38345122 311.74958409 82.48828125 322.9453125 C69.04197921 331.86984925 52.95616575 335.07646941 37.22265625 331.9921875 C26.92568252 329.37861955 18.67289792 324.04942095 12.72265625 315.1171875 C9.75849089 308.7858942 9.20826247 303.37415661 9.28515625 296.4296875 C9.29417969 295.45580078 9.30320312 294.48191406 9.3125 293.47851562 C9.75547153 274.98445407 18.79490461 260.64076183 30.72265625 247.1171875 C31.44324219 246.27542969 32.16382813 245.43367187 32.90625 244.56640625 C38.37377605 238.29970527 44.23095965 232.33273862 50.72265625 227.1171875 C51.38265625 227.1171875 52.04265625 227.1171875 52.72265625 227.1171875 C52.72265625 226.4571875 52.72265625 225.7971875 52.72265625 225.1171875 C54.22265625 223.4921875 54.22265625 223.4921875 55.72265625 222.1171875 C54.73265625 221.7871875 53.74265625 221.4571875 52.72265625 221.1171875 C52.72265625 220.4571875 52.72265625 219.7971875 52.72265625 219.1171875 C52.17867187 218.90191406 51.6346875 218.68664062 51.07421875 218.46484375 C47.91336512 216.65339109 45.59501829 214.16222727 43.09765625 211.5546875 C39.75862723 207.89004734 39.75862723 207.89004734 35.72265625 205.1171875 C35.72265625 204.4571875 35.72265625 203.7971875 35.72265625 203.1171875 C35.16578125 202.8696875 34.60890625 202.6221875 34.03515625 202.3671875 C30.09624821 200.23804802 27.16571596 198.44636663 25.72265625 194.1171875 C33.64128167 187.44691009 42.05554671 181.75658677 50.72265625 176.1171875 C52.76099049 177.3911464 54.76117751 178.72780673 56.72265625 180.1171875 C56.72265625 180.7771875 56.72265625 181.4371875 56.72265625 182.1171875 C57.3067627 182.37910889 57.89086914 182.64103027 58.49267578 182.91088867 C60.84531927 184.18354156 62.47529535 185.56992273 64.40234375 187.41796875 C65.08425781 188.06572266 65.76617188 188.71347656 66.46875 189.38085938 C67.17128906 190.05697266 67.87382813 190.73308594 68.59765625 191.4296875 C73.19034128 195.82213487 77.78361037 200.11485722 82.72265625 204.1171875 C86.65893017 202.70012889 89.88648592 200.83384182 93.34765625 198.4921875 C94.39050781 197.78707031 95.43335938 197.08195313 96.5078125 196.35546875 C100.54667401 193.5434789 104.509083 190.63721089 108.4453125 187.68359375 C110.72265625 186.1171875 110.72265625 186.1171875 113.72265625 185.1171875 C113.72265625 184.4571875 113.72265625 183.7971875 113.72265625 183.1171875 C115.19140625 181.70703125 115.19140625 181.70703125 117.22265625 180.0546875 C125.39140421 173.0549653 130.91283147 165.72171182 135.72265625 156.1171875 C136.55796875 154.6940625 136.55796875 154.6940625 137.41015625 153.2421875 C144.08112799 137.35892145 143.85049344 118.22772158 137.62109375 102.30078125 C132.46534669 90.34277437 125.36117658 80.72339414 116.72265625 71.1171875 C115.975 70.27285156 115.22734375 69.42851562 114.45703125 68.55859375 C91.81580049 44.45280785 59.3091896 29.32886204 27.16992188 23.55761719 C25.14543918 23.19327493 23.12813196 22.78930913 21.11328125 22.375 C2.73389089 19.03744901 -17.09462199 20.1841142 -35.27734375 24.1171875 C-36.08187988 24.28347656 -36.88641602 24.44976562 -37.71533203 24.62109375 C-70.58093698 31.54421709 -103.71393039 49.21182617 -125.57421875 75.109375 C-126.6600877 76.38950491 -127.77259966 77.64781883 -128.91796875 78.875 C-158.12578993 110.40306865 -172.45195806 157.62182546 -171.5 199.921875 C-170.89235241 212.61835086 -169.71497264 225.01619619 -166.51074219 237.34545898 C-164.82777097 244.00943174 -166.25097531 248.28333762 -168.4609375 254.54296875 C-168.86505859 255.81720703 -168.86505859 255.81720703 -169.27734375 257.1171875 C-169.63699219 258.24511719 -169.99664062 259.37304688 -170.3671875 260.53515625 C-171.86004898 266.63142338 -171.48791006 272.88401069 -171.40234375 279.1171875 C-171.39332031 280.36886719 -171.38429688 281.62054688 -171.375 282.91015625 C-171.35157091 285.9793676 -171.31876522 289.04817506 -171.27734375 292.1171875 C-172.26734375 292.1171875 -173.25734375 292.1171875 -174.27734375 292.1171875 C-197.44003856 244.14905356 -200.61469513 188.85785218 -184.3671875 138.09375 C-177.47711126 119.27569232 -168.64225833 101.62739379 -157.27734375 85.1171875 C-156.78959473 84.40643066 -156.3018457 83.69567383 -155.79931641 82.96337891 C-143.49615989 65.33552406 -127.83841515 49.52903854 -110.27734375 37.1171875 C-109.68679199 36.6929248 -109.09624023 36.26866211 -108.48779297 35.83154297 C-99.22078884 29.22139163 -89.58740965 23.910751 -79.27734375 19.1171875 C-78.31707275 18.65916748 -78.31707275 18.65916748 -77.33740234 18.19189453 C-53.18710098 6.70839251 -26.63329336 0.95232277 0 0 Z M59.28515625 236.9296875 C58.22941406 237.89648438 58.22941406 237.89648438 57.15234375 238.8828125 C55.94964844 239.98882812 55.94964844 239.98882812 54.72265625 241.1171875 C53.79710937 241.91640625 52.8715625 242.715625 51.91796875 243.5390625 C36.89148901 256.61501332 23.90500745 273.30374584 21.41015625 293.66796875 C21.09377713 300.02521171 22.35475003 305.67600196 25.72265625 311.1171875 C31.37435088 316.82787685 37.39227506 319.4024016 45.41015625 319.4921875 C51.99546569 319.38886152 56.950335 318.24299323 62.72265625 315.1171875 C63.33367187 314.81296875 63.9446875 314.50875 64.57421875 314.1953125 C72.23893535 309.64548073 79.0102065 299.04021515 81.296875 290.546875 C84.6984098 271.13628191 79.98358814 254.38197 69.23828125 238.19140625 C67.74729136 236.03932017 67.74729136 236.03932017 65.72265625 234.1171875 C62.16326771 234.1171875 61.81683463 234.60489897 59.28515625 236.9296875 Z " fill="#020202" transform="translate(632.27734375,132.8828125)"/>
<path d="M0 0 C0.9288501 0.00161133 1.8577002 0.00322266 2.81469727 0.00488281 C9.44968913 0.12395894 14.857479 0.89272317 20.625 4.375 C21.6975 4.9525 22.77 5.53 23.875 6.125 C31.49477001 12.35935728 35.61030217 20.63390083 36.625 30.375 C37.16163522 47.36844853 30.34521739 63.39652858 19.625 76.375 C18.93792969 77.26703125 18.25085938 78.1590625 17.54296875 79.078125 C13.39386792 84.43083886 13.39386792 84.43083886 11.625 86.375 C10.965 86.375 10.305 86.375 9.625 86.375 C9.295 87.365 8.965 88.355 8.625 89.375 C6.98828125 91.0234375 6.98828125 91.0234375 4.9375 92.75 C4.22207031 93.35714844 3.50664063 93.96429688 2.76953125 94.58984375 C2.06183594 95.17894531 1.35414063 95.76804687 0.625 96.375 C0.01011719 96.89191406 -0.60476563 97.40882813 -1.23828125 97.94140625 C-2.61198821 99.0921727 -3.99268397 100.23458928 -5.375 101.375 C-4.715 101.99375 -4.055 102.6125 -3.375 103.25 C-1.375 105.375 -1.375 105.375 -1.375 107.375 C-0.85035156 107.58253906 -0.32570313 107.79007812 0.21484375 108.00390625 C3.65867343 109.96303789 6.31982327 112.59965846 9.1875 115.3125 C9.76435547 115.85068359 10.34121094 116.38886719 10.93554688 116.94335938 C13.54123541 119.38074507 16.11079692 121.8430287 18.625 124.375 C17.35190747 128.19427758 16.03508688 128.5978928 12.625 130.625 C8.00167567 133.46039813 3.72576942 136.49993339 -0.5 139.89453125 C-4.94203991 143.40189193 -4.94203991 143.40189193 -7.26171875 143.2578125 C-10.1098287 142.06802905 -11.92850923 140.34890481 -14.1875 138.25 C-15.06664062 137.43660156 -15.94578125 136.62320313 -16.8515625 135.78515625 C-19.51671639 133.23964549 -22.12205058 130.64586274 -24.703125 128.015625 C-27.46137315 125.30893289 -30.41208011 122.85417786 -33.375 120.375 C-43.72571609 124.18542845 -52.8161657 131.23929217 -61.52490234 137.86889648 C-66.17202346 141.375 -66.17202346 141.375 -68.375 141.375 C-68.375 142.035 -68.375 142.695 -68.375 143.375 C-70.02502828 144.72886936 -71.6924387 146.06178142 -73.375 147.375 C-73.705 148.035 -74.035 148.695 -74.375 149.375 C-75.035 149.375 -75.695 149.375 -76.375 149.375 C-76.62507813 149.92027344 -76.87515625 150.46554687 -77.1328125 151.02734375 C-78.62187959 153.8415869 -80.41420761 156.33621683 -82.25 158.9375 C-86.02869112 164.54392759 -88.39241858 169.9447227 -90.375 176.375 C-90.9628125 177.9528125 -90.9628125 177.9528125 -91.5625 179.5625 C-96.77315084 197.59936829 -92.89831942 217.99849929 -84.375 234.375 C-78.34737508 244.91092605 -70.83455124 253.73391333 -62.375 262.375 C-61.77300781 263.02726562 -61.17101562 263.67953125 -60.55078125 264.3515625 C-50.83533778 274.67880971 -38.73118489 282.5938604 -26.375 289.375 C-25.74368164 289.72159668 -25.11236328 290.06819336 -24.46191406 290.42529297 C-5.40781681 300.72650502 15.15023917 307.48533672 36.625 310.375 C37.43195313 310.48714844 38.23890625 310.59929687 39.0703125 310.71484375 C74.38985255 314.75610774 110.49095256 307.16351645 141.625 290.375 C142.22940918 290.05273438 142.83381836 289.73046875 143.45654297 289.3984375 C159.06306083 281.01818453 171.96096912 270.70075312 184.625 258.375 C185.43066406 257.60929687 186.23632812 256.84359375 187.06640625 256.0546875 C203.90030069 239.78082478 216.20624757 218.54108886 225.29882812 197.15014648 C232.76098711 179.62022299 232.76098711 179.62022299 238.5 177.125 C239.53125 176.8775 240.5625 176.63 241.625 176.375 C242.84465872 175.65897367 244.03950813 174.89994971 245.21484375 174.11328125 C250.49284428 170.73202438 256.11855947 168.2516374 261.82226562 165.68164062 C266.22852387 163.65313903 269.97662399 161.65185096 273.625 158.375 C274.625 159.375 274.625 159.375 274.7890625 162.48828125 C274.18466005 176.80686307 267.89292093 190.90466542 258.04296875 201.18359375 C251.97802617 206.68025415 245.79398912 209.49376696 237.953125 211.515625 C234.64462145 212.7368847 232.52580325 214.75992048 230.09765625 217.265625 C229.36869141 217.81476563 229.36869141 217.81476563 228.625 218.375 C227.635 218.045 226.645 217.715 225.625 217.375 C227.19513777 211.40847646 230.37529782 206.54590975 233.625 201.375 C226.33651499 208.66348501 223.24085802 217.96093179 219.625 227.375 C220.429375 227.1584375 220.429375 227.1584375 221.25 226.9375 C226.00169626 225.81209825 230.62666648 225.24388034 235.50390625 225.09375 C236.58994141 225.05636719 237.67597656 225.01898438 238.79492188 224.98046875 C241.06054311 224.91003493 243.32616813 224.83972285 245.59179688 224.76953125 C246.67654297 224.73214844 247.76128906 224.69476563 248.87890625 224.65625 C249.86189697 224.62595703 250.8448877 224.59566406 251.85766602 224.56445312 C254.52665422 224.3817328 257.0180594 223.96244607 259.625 223.375 C258.29108206 228.20320297 256.18449516 231.8443486 253.125 235.75 C252.68285156 236.31581787 252.24070312 236.88163574 251.78515625 237.46459961 C244.7552678 246.18848207 236.01949089 253.44558631 224.52685547 254.71801758 C221.20531087 254.85452283 217.88608419 254.93111247 214.5625 255 C205.75160156 255.10864919 205.75160156 255.10864919 197.96875 258.6484375 C195.76830754 261.141796 194.1045681 263.40583284 192.625 266.375 C192.295 267.035 191.965 267.695 191.625 268.375 C190.965 268.375 190.305 268.375 189.625 268.375 C189.38007812 268.94605469 189.13515625 269.51710938 188.8828125 270.10546875 C174.18696381 296.62189139 130.36769852 317.02189641 103.16015625 325.1171875 C101.65009038 325.54237296 100.13848208 325.96213972 98.625 326.375 C96.79775391 326.87386719 96.79775391 326.87386719 94.93359375 327.3828125 C63.80382575 335.09969843 29.4059534 334.4388604 -1.375 325.375 C-2.18211426 325.13797363 -2.98922852 324.90094727 -3.82080078 324.65673828 C-30.87592615 316.52948678 -59.46430107 302.94004115 -79.375 282.375 C-80.4264784 281.3638398 -81.48139365 280.35624571 -82.5390625 279.3515625 C-99.31430436 263.20943982 -115.65279585 241.96338679 -119.375 218.375 C-119.48585938 217.68277344 -119.59671875 216.99054688 -119.7109375 216.27734375 C-122.72447793 193.83868457 -117.54798537 173.55068157 -103.87890625 155.5625 C-97.48095776 147.35838567 -90.64811616 140.70910456 -82.375 134.375 C-81.405625 133.61703125 -80.43625 132.8590625 -79.4375 132.078125 C-68.16334583 123.62250937 -55.73438596 117.0918677 -43.375 110.375 C-43.83608154 109.67592529 -44.29716309 108.97685059 -44.7722168 108.2565918 C-48.37318661 102.71391796 -51.63164611 97.2831806 -54.1875 91.1875 C-54.47302734 90.54103516 -54.75855469 89.89457031 -55.05273438 89.22851562 C-62.70362635 71.42377166 -61.62638059 52.84161188 -54.9765625 34.97265625 C-47.70535031 18.63903081 -34.69478103 8.91349118 -18.375 2.375 C-12.31411636 0.29161973 -6.37146627 -0.01147495 0 0 Z M-24.0625 24.15234375 C-28.29652208 29.32843574 -30.45113196 35.02130248 -32.375 41.375 C-32.56835938 42.01050781 -32.76171875 42.64601563 -32.9609375 43.30078125 C-35.742536 57.23501522 -31.4155707 69.93069049 -24.19140625 81.6953125 C-21.81944199 85.19459741 -19.25563793 88.28358369 -16.375 91.375 C-13.12944361 90.78678993 -11.41134789 89.81672429 -9.01953125 87.56640625 C-8.40134521 86.98914795 -7.78315918 86.41188965 -7.14624023 85.81713867 C-6.49985596 85.19685791 -5.85347168 84.57657715 -5.1875 83.9375 C-4.51984619 83.30368408 -3.85219238 82.66986816 -3.16430664 82.0168457 C8.6499283 70.70053419 22.73002592 56.50526386 23.828125 39.16796875 C23.95167515 29.66490303 23.3731482 23.52009809 16.625 16.375 C3.32699261 7.06639483 -13.77799806 13.32028731 -24.0625 24.15234375 Z " fill="#020202" transform="translate(585.375,207.625)"/>
<path d="M0 0 C2.8125 2.375 2.8125 2.375 5 5 C5.44085937 5.52464844 5.88171875 6.04929688 6.3359375 6.58984375 C12.29037055 14.17916449 12.76428374 22.64662278 12 32 C9.89135137 43.8190642 2.71787666 55.01319317 -5 64 C-5.66 64 -6.32 64 -7 64 C-7.40412109 64.89138672 -7.40412109 64.89138672 -7.81640625 65.80078125 C-16.3985776 81.74719204 -39.11611884 93.31353158 -54 103 C-54.94746094 103.61746094 -55.89492188 104.23492187 -56.87109375 104.87109375 C-62.65404916 108.5917768 -68.5359046 112.13431407 -74.43994141 115.65771484 C-83.12632202 120.85179326 -91.60833825 126.34339837 -100 132 C-98.45734943 135.26858636 -96.60272429 138.22727729 -94.625 141.25 C-89.95207678 148.55992554 -86.38908443 155.64527278 -84 164 C-83.79246094 164.68964844 -83.58492187 165.37929688 -83.37109375 166.08984375 C-79.02814338 183.37053437 -81.85392147 201.40576115 -90.11328125 216.98828125 C-100.60429001 233.73479833 -115.67460637 245.08404513 -134.86230469 249.90722656 C-149.44906654 253.23381694 -163.73358538 253.46876318 -176.9375 245.25 C-186.06573909 238.46320514 -191.07942386 230.21543988 -193 219 C-194.12208589 203.29079751 -187.10601728 187.98596 -177.4375 175.9375 C-174.31393621 172.34540165 -171.0688362 168.89949489 -167.60546875 165.6328125 C-165.87176386 163.93181899 -165.87176386 163.93181899 -164.08984375 161.55078125 C-160.81345827 157.55175374 -156.80421072 154.58612157 -152.7578125 151.39550781 C-150.87699814 149.90235019 -149.01711607 148.38511728 -147.15625 146.8671875 C-135.67501258 137.61054884 -123.50571994 129.67819492 -111.00195312 121.87792969 C-108.21506988 120.13454111 -105.44083619 118.37323722 -102.671875 116.6015625 C-93.58942868 110.79759671 -84.42709965 105.2287339 -75 100 C-75.25692627 99.49251221 -75.51385254 98.98502441 -75.77856445 98.4621582 C-85.64903064 78.79453787 -91.82252395 57.441836 -84.96875 35.484375 C-80.1257341 23.06438261 -73.19876981 12.47212036 -62 5 C-60.89591797 4.21689453 -60.89591797 4.21689453 -59.76953125 3.41796875 C-42.35150917 -8.10651822 -18.16749432 -11.37529136 0 0 Z M-51.8125 18.875 C-60.51292892 29.44843792 -62.2279235 41.67812921 -61 55 C-59.31053897 63.67998541 -55.1507404 71.84478427 -50 79 C-49.34 79 -48.68 79 -48 79 C-48 79.66 -48 80.32 -48 81 C-44.47682039 79.72944568 -41.78975391 78.28149411 -38.875 75.9375 C-38.09769531 75.31359375 -37.32039063 74.6896875 -36.51953125 74.046875 C-35.68808594 73.37140625 -34.85664062 72.6959375 -34 72 C-33.11699219 71.30390625 -32.23398437 70.6078125 -31.32421875 69.890625 C-18.87940114 59.96293457 -2.78197168 45.85395632 -0.6015625 28.90234375 C-0.65392511 22.27847335 -0.75367049 17.39388994 -5.546875 12.3828125 C-11.97964525 6.43392319 -18.16430509 5.58815912 -26.75390625 5.75390625 C-36.78206085 6.51416346 -45.0647705 11.55177119 -51.8125 18.875 Z M-135.9375 155.5 C-136.52362061 155.95415283 -137.10974121 156.40830566 -137.71362305 156.8762207 C-142.85122646 160.86592035 -147.95806585 164.88982225 -153 169 C-153.67417969 169.5259375 -154.34835937 170.051875 -155.04296875 170.59375 C-166.98891425 180.32218466 -176.88819414 195.03269993 -179.625 210.25 C-180.42308054 218.07294329 -179.06610402 223.68171173 -174.9375 230.3125 C-167.97579775 236.68171695 -161.33712987 238.69837915 -151.97119141 238.5234375 C-139.52703792 237.88784111 -129.67583987 232.08452013 -121.1875 223.25 C-117.10174502 218.50938533 -114.78682136 213.96265249 -113 208 C-112.77699219 207.34515625 -112.55398438 206.6903125 -112.32421875 206.015625 C-107.75478343 190.97068151 -113.10323077 175.474738 -120.12109375 162.12109375 C-122.61615801 157.97648596 -125.41309337 154.26266648 -129 151 C-131.3792465 151 -134.05465255 154.03415014 -135.9375 155.5 Z " fill="#020202" transform="translate(719,214)"/>
<path d="M0 0 C0.99 0 1.98 0 3 0 C3.07734375 0.804375 3.07734375 0.804375 3.15625 1.625 C4.02598264 7.63406189 6.04224616 12.48195644 8.8125 17.8125 C19.03583849 37.49555052 23.67626554 56.79196501 17.27563477 78.49414062 C11.42501479 96.7166568 11.42501479 96.7166568 5 101 C3.91513874 97.74541623 4.12463769 97.13177869 5 94 C5.33662719 90.73739142 5.46956272 87.46330441 5.625 84.1875 C5.67003662 83.25784424 5.71507324 82.32818848 5.76147461 81.37036133 C6.08684912 73.50387447 5.78202619 65.83229304 5 58 C5.02320313 58.98355469 5.04640625 59.96710938 5.0703125 60.98046875 C5.47387443 85.78283859 2.00917308 108.62596404 -9 131 C-9.45415283 131.93489258 -9.45415283 131.93489258 -9.91748047 132.88867188 C-16.91695672 147.13217993 -25.94759587 161.5346489 -37 173 C-37.66 173 -38.32 173 -39 173 C-39.2475 173.57234375 -39.495 174.1446875 -39.75 174.734375 C-49.30144677 192.04637227 -74.88426003 205.16898362 -92 214 C-93.16917969 214.60457031 -94.33835937 215.20914063 -95.54296875 215.83203125 C-135.91833674 235.49589407 -182.17600063 235.41994682 -224 221 C-235.71435486 216.67382121 -248.08541245 211.76994273 -258 204 C-258.33 203.01 -258.66 202.02 -259 201 C-255.4634442 201.58630731 -252.63959185 202.53186699 -249.4375 204.125 C-227.80296216 214.14581672 -204.76435675 219.73077277 -181 221 C-180.2898877 221.03996094 -179.57977539 221.07992187 -178.84814453 221.12109375 C-160.65753384 221.99543216 -141.19638064 220.060851 -124 214 C-122.65039149 213.56178921 -121.30008782 213.12571555 -119.94921875 212.69140625 C-110.44094566 209.56381295 -101.58075721 205.61353283 -92.74707031 200.91992188 C-91.21677275 200.11414194 -89.66825968 199.34315247 -88.1171875 198.578125 C-79.33930289 194.1236761 -71.67662901 188.10471036 -64 182 C-63.42024414 181.54512207 -62.84048828 181.09024414 -62.24316406 180.62158203 C-54.35923886 174.54253376 -54.35923886 174.54253376 -50.79296875 165.6640625 C-51.12671591 161.36942926 -52.30276092 157.29405234 -53.4597168 153.16137695 C-57.40247098 138.76299785 -54.56203086 127.17888355 -47.4609375 114.52734375 C-46.73777344 113.27630859 -46.73777344 113.27630859 -46 112 C-45.34 112 -44.68 112 -44 112 C-43.03583303 114.12321876 -42.08503092 116.25115291 -41.1484375 118.38671875 C-40.42067679 120.04274567 -39.67765961 121.6922202 -38.9140625 123.33203125 C-34.79070636 132.6793386 -32.9834268 142.917134 -35 153 C-34.03874097 151.58531689 -33.08111675 150.1681636 -32.125 148.75 C-31.59132813 147.96109375 -31.05765625 147.1721875 -30.5078125 146.359375 C-26.77174564 140.51330146 -25.97912568 135.93490488 -27 129 C-29.13092341 123.43745967 -32.1563981 118.41937596 -35.1875 113.3125 C-43.43721481 98.23543499 -43.12711347 82.22395616 -39 66 C-37.562757 61.24800443 -35.82482217 56.61615095 -34 52 C-33.01 52 -32.02 52 -31 52 C-30.75507812 52.825 -30.51015625 53.65 -30.2578125 54.5 C-27.16122857 64.06737656 -22.57532326 71.83077365 -17.12451172 80.234375 C-12.31740453 87.78213861 -9.84452356 95.27225438 -8 104 C-5.36321464 94.79791238 -7.37626353 86.38135281 -10.375 77.5625 C-18.03808163 53.70145319 -17.37086343 32.72502659 -6.09033203 10.18212891 C-4.25520196 6.65540386 -2.4260647 3.15447154 0 0 Z M-19 109 C-18 111 -18 111 -18 111 Z " fill="#020202" transform="translate(811,284)"/>
<path d="M0 0 C1.00095703 0.56396484 2.00191406 1.12792969 3.03320312 1.70898438 C12.64936692 7.18654603 12.64936692 7.18654603 16.0625 10.4375 C16.0625 11.0975 16.0625 11.7575 16.0625 12.4375 C11.55988917 11.85241498 8.12808949 9.96619697 4.25 7.75 C-9.92833969 -0.03398163 -25.30539279 -4.61343208 -40.9375 -8.5625 C-41.6500293 -8.74474121 -42.36255859 -8.92698242 -43.09667969 -9.11474609 C-65.19636304 -14.48211723 -91.10887944 -13.31383822 -112.9375 -7.5625 C-113.67274902 -7.38058105 -114.40799805 -7.19866211 -115.16552734 -7.01123047 C-126.66034768 -4.14329202 -137.28141023 0.30859834 -147.9375 5.4375 C-149.04480469 5.95828125 -150.15210938 6.4790625 -151.29296875 7.015625 C-189.09150295 25.98675243 -217.23082339 62.2570573 -230.4921875 101.875 C-238.36189119 126.27424195 -240.3752982 150.91788674 -240.9375 176.4375 C-244.66907797 172.96532659 -244.52231276 170.39421563 -244.8125 165.39453125 C-246.04588437 126.35020743 -240.28314392 85.03820989 -216.9375 52.4375 C-216.26589844 51.49519531 -215.59429687 50.55289063 -214.90234375 49.58203125 C-213.54475943 47.70171353 -212.1768075 45.82882234 -210.796875 43.96484375 C-209.17103672 41.75493331 -207.61129342 39.51397156 -206.0625 37.25 C-205.010625 35.8578125 -205.010625 35.8578125 -203.9375 34.4375 C-203.2775 34.4375 -202.6175 34.4375 -201.9375 34.4375 C-201.70289063 33.87675781 -201.46828125 33.31601563 -201.2265625 32.73828125 C-198.50450563 27.87982217 -193.93242596 24.25408105 -189.9375 20.4375 C-189.31875 19.83679688 -188.7 19.23609375 -188.0625 18.6171875 C-167.79420635 -0.11288743 -140.88164112 -13.19479469 -113.9375 -18.5625 C-113.19870605 -18.71203125 -112.45991211 -18.8615625 -111.69873047 -19.015625 C-73.25516431 -26.49949943 -33.82836653 -19.45522867 0 0 Z " fill="#020202" transform="translate(709.9375,179.5625)"/>
<path d="M0 0 C2.42130331 3.63195496 2.21022785 5.38349348 2.125 9.6875 C2.10695313 10.86699219 2.08890625 12.04648437 2.0703125 13.26171875 C2.03550781 14.61716797 2.03550781 14.61716797 2 16 C0.515625 14.7421875 0.515625 14.7421875 -1 13 C-1.29390541 8.44446622 -1.11119437 4.44477749 0 0 Z " fill="#0A0B0B" transform="translate(467,340)"/>
<path d="M0 0 C1.90845703 0.29197266 1.90845703 0.29197266 3.85546875 0.58984375 C4.83128906 0.74582031 5.80710937 0.90179688 6.8125 1.0625 C6.8125 1.3925 6.8125 1.7225 6.8125 2.0625 C0.8725 2.0625 -5.0675 2.0625 -11.1875 2.0625 C-8.92672603 -2.45904793 -4.17300137 -0.65083508 0 0 Z " fill="#0A0909" transform="translate(636.1875,133.9375)"/>
<path d="M0 0 C0.6875 1.625 0.6875 1.625 1 4 C-0.4375 7.25 -0.4375 7.25 -2 10 C-2.66 10 -3.32 10 -4 10 C-3.43454163 6.04179141 -2.19097652 3.3340947 0 0 Z " fill="#0A0B09" transform="translate(476,250)"/>
<path d="M0 0 C0.6875 1.6875 0.6875 1.6875 1 4 C-0.25 6.6875 -0.25 6.6875 -2 9 C-2.99 9.33 -3.98 9.66 -5 10 C-3.66511872 6.40608886 -2.03977277 3.24509304 0 0 Z " fill="#0A0A09" transform="translate(486,231)"/>
<path d="M0 0 C0.66 0 1.32 0 2 0 C3 3 3 3 2.0625 5.1875 C1.5365625 6.0846875 1.5365625 6.0846875 1 7 C0.34 7 -0.32 7 -1 7 C-0.67 4.69 -0.34 2.38 0 0 Z " fill="#080906" transform="translate(714,418)"/>
<path d="M0 0 C2.76223278 2.76223278 2.57856291 5.20706617 3 9 C2.34 9 1.68 9 1 9 C-0.4783226 6.04335481 -0.06032783 3.25770263 0 0 Z " fill="#0B0C0A" transform="translate(445,385)"/>
<path d="" fill="#000000" transform="translate(0,0)"/>
<path d="" fill="#000000" transform="translate(0,0)"/>
</svg>
