<?xml version="1.0" encoding="UTF-8"?>
<svg version="1.1" xmlns="http://www.w3.org/2000/svg" width="1280" height="683">
<path d="M0 0 C1.11134613 1.12107345 2.20390066 2.26151058 3.265625 3.4296875 C4.76785859 5.04132746 6.37276619 6.37026499 8.09765625 7.73828125 C8.94328125 8.46015625 9.78890625 9.18203125 10.66015625 9.92578125 C10.66015625 10.58578125 10.66015625 11.24578125 10.66015625 11.92578125 C11.32015625 11.92578125 11.98015625 11.92578125 12.66015625 11.92578125 C26.59188644 27.25832526 34.10916893 45.3912828 33.8671875 66.1796875 C32.94734659 82.82360129 26.37926077 96.24890774 14.66015625 107.92578125 C14.12003906 108.52519531 13.57992188 109.12460938 13.0234375 109.7421875 C4.87045673 118.59340843 -6.17913141 125.00310886 -16.4140625 131.1640625 C-18.98154253 132.71003512 -21.50707291 134.30463406 -24.02734375 135.92578125 C-27.33984375 137.92578125 -27.33984375 137.92578125 -29.33984375 137.92578125 C-27.99268596 141.64871485 -26.28190313 144.61891532 -24.02734375 147.86328125 C-17.97495533 157.23187415 -14.60484516 167.87001547 -13.33984375 178.92578125 C-13.25605469 179.62445313 -13.17226563 180.323125 -13.0859375 181.04296875 C-12.27484787 194.90998498 -18.2613214 208.95932649 -26.953125 219.40234375 C-36.82333421 229.83794956 -49.2512542 236.31627253 -63.6640625 237.04296875 C-74.5007933 237.34168415 -82.03391091 235.14587907 -90.33984375 227.92578125 C-97.24967745 220.40332312 -98.82871713 213.90090648 -98.58984375 203.78125 C-97.680042 189.75040111 -90.74127276 178.79620165 -82.33984375 167.92578125 C-81.63988281 167.00925781 -81.63988281 167.00925781 -80.92578125 166.07421875 C-78.10032374 162.51961092 -74.85291199 159.78014919 -71.33984375 156.92578125 C-70.49421875 156.08015625 -69.64859375 155.23453125 -68.77734375 154.36328125 C-66.42306214 152.00899964 -63.9737146 149.95762447 -61.33984375 147.92578125 C-62.91956917 143.80686527 -65.9219972 141.32801758 -69.15234375 138.48828125 C-70.20153354 137.55321841 -71.24972 136.61702849 -72.296875 135.6796875 C-72.80669922 135.22343994 -73.31652344 134.76719238 -73.84179688 134.29711914 C-81.26169315 127.5048184 -81.26169315 127.5048184 -83.33984375 123.92578125 C-83.296875 122.08984375 -83.296875 122.08984375 -82.33984375 119.92578125 C-80.29987146 118.24185562 -78.35227723 116.801606 -76.15234375 115.36328125 C-75.30446289 114.78416992 -75.30446289 114.78416992 -74.43945312 114.19335938 C-70.87058327 111.79367255 -67.23188857 109.77435489 -63.33984375 107.92578125 C-56.98729881 112.94844762 -51.00603799 118.10323735 -45.35546875 123.90625 C-42.81948927 126.44714417 -40.14825483 128.6934545 -37.33984375 130.92578125 C-17.20836208 121.45214282 1.70200033 104.85820994 9.82421875 83.92578125 C14.11094246 69.18265672 12.22921741 54.61685484 5.66015625 40.92578125 C3.50384504 37.18402667 1.04102467 33.76018354 -1.58203125 30.33203125 C-3.33984375 27.92578125 -3.33984375 27.92578125 -3.33984375 25.92578125 C-4.32984375 25.59578125 -5.31984375 25.26578125 -6.33984375 24.92578125 C-8.05859375 23.1484375 -8.05859375 23.1484375 -9.83984375 20.98828125 C-11.96860396 18.41602933 -13.5237552 16.80317362 -16.33984375 14.92578125 C-16.33984375 14.26578125 -16.33984375 13.60578125 -16.33984375 12.92578125 C-16.87480469 12.68859375 -17.40976562 12.45140625 -17.9609375 12.20703125 C-20.38537867 10.90125669 -22.50942634 9.35973505 -24.703125 7.7019043 C-37.60144175 -1.98480571 -51.91698196 -9.34960968 -67.33984375 -14.07421875 C-68.5 -14.44160156 -69.66015625 -14.80898437 -70.85546875 -15.1875 C-105.60396784 -25.71154983 -143.35508818 -20.23354876 -175.17822266 -3.29931641 C-180.92465029 -0.04253147 -186.14601114 3.86275776 -191.33984375 7.92578125 C-192.27570313 8.63992187 -193.2115625 9.3540625 -194.17578125 10.08984375 C-200.17381871 14.75498399 -206.0976564 19.56250023 -210.33984375 25.92578125 C-210.99984375 25.92578125 -211.65984375 25.92578125 -212.33984375 25.92578125 C-212.58347656 26.46074219 -212.82710937 26.99570313 -213.078125 27.546875 C-214.66697084 30.54256267 -216.57164115 33.21798307 -218.52734375 35.98828125 C-229.15842731 51.22273553 -236.22522538 66.43353306 -242.33984375 83.92578125 C-242.68402344 84.89257812 -243.02820313 85.859375 -243.3828125 86.85546875 C-249.71759135 106.98527362 -248.62497102 130.85527859 -245.09375 151.375 C-242.82267155 164.80129323 -242.82267155 164.80129323 -244.65234375 170.23828125 C-247.81537295 180.63728136 -248.73166601 191.10661944 -249.33984375 201.92578125 C-252.43539574 199.86207992 -252.81292265 199.42627605 -254.05859375 196.1796875 C-254.34959961 195.43058105 -254.64060547 194.68147461 -254.94042969 193.90966797 C-255.23723633 193.11061035 -255.53404297 192.31155273 -255.83984375 191.48828125 C-256.14954102 190.66859863 -256.45923828 189.84891602 -256.77832031 189.00439453 C-271.19435208 150.28901758 -271.20321941 102.90165104 -254.4375 64.87939453 C-252.24967173 60.13040007 -249.82543102 55.52406103 -247.33984375 50.92578125 C-246.98519043 50.25272949 -246.63053711 49.57967773 -246.26513672 48.88623047 C-238.88387485 34.89072045 -229.80693189 21.92977544 -218.33984375 10.92578125 C-217.67984375 10.92578125 -217.01984375 10.92578125 -216.33984375 10.92578125 C-216.00984375 9.93578125 -215.67984375 8.94578125 -215.33984375 7.92578125 C-214.67984375 7.92578125 -214.01984375 7.92578125 -213.33984375 7.92578125 C-213.00984375 6.93578125 -212.67984375 5.94578125 -212.33984375 4.92578125 C-211.67984375 4.92578125 -211.01984375 4.92578125 -210.33984375 4.92578125 C-210.33984375 4.26578125 -210.33984375 3.60578125 -210.33984375 2.92578125 C-208.5440098 1.32675102 -206.75507108 -0.12902485 -204.83984375 -1.57421875 C-204.25887939 -2.01491699 -203.67791504 -2.45561523 -203.0793457 -2.90966797 C-179.46555577 -20.51454987 -152.74382862 -32.58305985 -123.33984375 -36.07421875 C-122.40011719 -36.203125 -121.46039062 -36.33203125 -120.4921875 -36.46484375 C-78.44049726 -41.40445497 -31.91796377 -28.29455553 0 0 Z M-71.64135742 170.72119141 C-80.72970786 180.18974528 -88.21430972 193.40563552 -88.77734375 206.73828125 C-88.39521008 213.1650748 -86.15190837 217.44977032 -81.46484375 221.80078125 C-76.70126111 225.96658097 -72.32446436 226.15647577 -66.15234375 225.86328125 C-57.41851368 225.07378249 -51.46704263 221.44502712 -45.46484375 215.17578125 C-39.07091992 207.19845647 -36.88451232 198.05412907 -37.33984375 187.92578125 C-39.01603879 175.54961824 -43.68477161 164.07542894 -52.33984375 154.92578125 C-58.14507196 154.92578125 -67.45589189 166.55096348 -71.64135742 170.72119141 Z " fill="#FCFDF9" transform="translate(744.33984375,141.07421875)"/>
<path d="M0 0 C5.1176571 4.62863653 7.50269501 11.11020844 7.99609375 17.83984375 C8.37808129 37.1402668 -0.1454194 51.91594391 -13.2421875 65.58984375 C-17.1126782 69.40157079 -21.14642557 73.02302839 -25.2421875 76.58984375 C-23.65849526 80.73481603 -20.61391272 83.23241412 -17.3671875 86.08984375 C-9.24623648 93.34139856 -9.24623648 93.34139856 -7.2421875 95.58984375 C-7.4921875 97.83984375 -7.4921875 97.83984375 -8.2421875 99.58984375 C-9.5621875 99.91984375 -10.8821875 100.24984375 -12.2421875 100.58984375 C-12.2421875 101.24984375 -12.2421875 101.90984375 -12.2421875 102.58984375 C-14.54296875 104.24609375 -14.54296875 104.24609375 -17.5546875 106.08984375 C-18.54082031 106.69828125 -19.52695312 107.30671875 -20.54296875 107.93359375 C-21.43371094 108.48015625 -22.32445312 109.02671875 -23.2421875 109.58984375 C-24.2321875 110.24984375 -25.2221875 110.90984375 -26.2421875 111.58984375 C-30.24846685 111.3157299 -32.17179477 110.14377656 -34.90625 107.28125 C-35.55335938 106.61673828 -36.20046875 105.95222656 -36.8671875 105.26757812 C-37.8571875 104.22053711 -37.8571875 104.22053711 -38.8671875 103.15234375 C-40.19057115 101.77658681 -41.51601115 100.40280423 -42.84375 99.03125 C-43.42463379 98.41967041 -44.00551758 97.80809082 -44.60400391 97.17797852 C-46.35724089 95.38250381 -46.35724089 95.38250381 -49.2421875 93.58984375 C-53.22700095 93.89437421 -55.6388499 95.30073172 -58.8046875 97.65234375 C-62.64057352 100.44468529 -66.52228834 103.11591597 -70.4921875 105.71484375 C-84.00711363 114.74205494 -93.86294298 127.01028705 -97.875 143.1328125 C-100.80808388 158.89231874 -98.96966042 175.6796976 -90.05322266 189.42236328 C-87.89400154 192.55877343 -85.64518411 195.61732157 -83.3515625 198.65625 C-81.2421875 201.58984375 -81.2421875 201.58984375 -80.2421875 204.58984375 C-79.5821875 204.58984375 -78.9221875 204.58984375 -78.2421875 204.58984375 C-76.9375 205.98828125 -76.9375 205.98828125 -75.3671875 207.96484375 C-67.18075945 217.53822862 -57.10478823 224.38801288 -46.2421875 230.58984375 C-45.11425781 231.25886719 -43.98632812 231.92789063 -42.82421875 232.6171875 C-32.51087241 238.56522426 -21.60335451 242.16115396 -10.2421875 245.58984375 C-9.17484375 245.93015625 -8.1075 246.27046875 -7.0078125 246.62109375 C28.03702455 256.74965937 67.02269269 248.76989011 98.3203125 231.58984375 C105.15632397 227.71362577 111.59245407 223.47433702 117.7578125 218.58984375 C118.70269531 217.85894531 119.64757812 217.12804687 120.62109375 216.375 C125.55452792 212.46964278 130.04769754 208.53110019 134.0390625 203.65771484 C135.64697743 201.72319219 137.31558729 199.86841213 139.0078125 198.0078125 C143.14180509 193.29407926 146.57252989 188.19956011 150.0078125 182.96484375 C150.61882812 182.04960937 151.22984375 181.134375 151.859375 180.19140625 C157.38920948 171.93518747 157.38920948 171.93518747 160.9453125 162.71484375 C161.2134375 161.68359375 161.4815625 160.65234375 161.7578125 159.58984375 C162.4178125 159.58984375 163.0778125 159.58984375 163.7578125 159.58984375 C164.098125 158.38328125 164.098125 158.38328125 164.4453125 157.15234375 C169.73873446 142.78448414 179.50452716 137.45915141 192.7578125 131.02734375 C193.69044922 130.57302979 194.62308594 130.11871582 195.58398438 129.65063477 C196.46634766 129.23740967 197.34871094 128.82418457 198.2578125 128.3984375 C199.051875 128.02517334 199.8459375 127.65190918 200.6640625 127.26733398 C202.7578125 126.58984375 202.7578125 126.58984375 205.7578125 127.58984375 C204.11463015 141.57851451 200.12901213 152.96950199 188.94921875 162.1484375 C185.1480938 164.64864268 181.01256495 166.39806805 176.84375 168.1953125 C173.75384554 169.51181953 173.75384554 169.51181953 171.046875 171.265625 C168.7578125 172.58984375 168.7578125 172.58984375 165.7578125 172.58984375 C165.4278125 171.92984375 165.0978125 171.26984375 164.7578125 170.58984375 C163.1078125 174.21984375 161.4578125 177.84984375 159.7578125 181.58984375 C160.82 181.26242187 161.8821875 180.935 162.9765625 180.59765625 C168.7040838 179.16577592 174.39015381 179.37360025 180.2578125 179.46484375 C181.36640625 179.47386719 182.475 179.48289062 183.6171875 179.4921875 C186.33095842 179.51558208 189.04426795 179.548362 191.7578125 179.58984375 C190.44747221 184.61406281 188.20166953 187.92964085 184.6953125 191.65234375 C184.20651611 192.17675049 183.71771973 192.70115723 183.21411133 193.24145508 C176.33404069 200.37853664 169.61333547 203.48618113 159.6640625 203.73046875 C158.94347656 203.74980469 158.22289062 203.76914062 157.48046875 203.7890625 C155.9989724 203.8229104 154.51703692 203.84114564 153.03515625 203.84375 C147.27197703 204.03963623 144.82643791 205.50326852 140.7578125 209.58984375 C139.72171854 210.70314664 138.71714656 211.84725384 137.7578125 213.02734375 C130.07663604 222.0086748 121.63386801 231.02894923 111.7578125 237.58984375 C110.68402344 238.34523438 109.61023438 239.100625 108.50390625 239.87890625 C84.34083179 256.69823798 56.33207258 266.68289977 26.7578125 267.58984375 C25.81164062 267.62980469 24.86546875 267.66976563 23.890625 267.7109375 C6.11363477 268.10341651 -11.32520458 266.05247052 -28.2421875 260.58984375 C-29.02013672 260.34105469 -29.79808594 260.09226562 -30.59960938 259.8359375 C-39.91416835 256.78976291 -48.73942332 253.05920738 -57.4296875 248.52734375 C-58.57824219 247.92853394 -58.57824219 247.92853394 -59.75 247.31762695 C-64.95179654 244.50817687 -69.59558221 241.23466097 -74.2421875 237.58984375 C-75.03367187 236.99558594 -75.82515625 236.40132812 -76.640625 235.7890625 C-84.8831168 229.48502233 -92.86029215 222.81912986 -99.2421875 214.58984375 C-99.2421875 213.92984375 -99.2421875 213.26984375 -99.2421875 212.58984375 C-99.9021875 212.58984375 -100.5621875 212.58984375 -101.2421875 212.58984375 C-102.76225457 210.70496058 -104.13627948 208.83886686 -105.4921875 206.83984375 C-105.89260254 206.25436768 -106.29301758 205.6688916 -106.70556641 205.06567383 C-118.3137166 187.73732919 -124.3587532 168.50353004 -120.51953125 147.66796875 C-116.82541071 133.96831524 -110.3473897 123.59397897 -100.4921875 113.58984375 C-100.0079834 113.09621338 -99.5237793 112.60258301 -99.02490234 112.09399414 C-95.48787534 108.58984375 -95.48787534 108.58984375 -93.2421875 108.58984375 C-93.2421875 107.92984375 -93.2421875 107.26984375 -93.2421875 106.58984375 C-91.00259203 104.93659311 -88.76699222 103.40631687 -86.4296875 101.90234375 C-85.74624268 101.45608643 -85.06279785 101.0098291 -84.35864258 100.55004883 C-82.9716642 99.64634497 -81.58258742 98.74585331 -80.19140625 97.84863281 C-78.50413859 96.75900956 -76.82546742 95.65609642 -75.1484375 94.55078125 C-69.37166204 90.78259726 -63.4824408 87.52722979 -57.2421875 84.58984375 C-57.85707031 83.64882812 -58.47195313 82.7078125 -59.10546875 81.73828125 C-59.92203906 80.48057525 -60.73843611 79.22275675 -61.5546875 77.96484375 C-61.95880859 77.34738281 -62.36292969 76.72992188 -62.77929688 76.09375 C-71.72960835 62.26806561 -73.25009769 46.25139516 -69.9296875 30.1796875 C-66.77088756 18.28034456 -59.4308209 7.52540136 -49.2421875 0.58984375 C-33.52934798 -7.1932996 -15.37141054 -10.23723496 0 0 Z M-41.2421875 12.58984375 C-41.2421875 13.24984375 -41.2421875 13.90984375 -41.2421875 14.58984375 C-41.9021875 14.58984375 -42.5621875 14.58984375 -43.2421875 14.58984375 C-44.05717312 16.19274905 -44.86908677 17.79721653 -45.6796875 19.40234375 C-46.13214844 20.29566406 -46.58460938 21.18898437 -47.05078125 22.109375 C-51.12957414 30.60128806 -50.37934297 41.16929452 -47.5 49.97802734 C-44.93661215 56.91007555 -41.66580913 64.44357546 -35.2421875 68.58984375 C-32.54272179 68.40309279 -32.54272179 68.40309279 -30.2421875 67.58984375 C-30.2421875 66.92984375 -30.2421875 66.26984375 -30.2421875 65.58984375 C-29.71238281 65.38230469 -29.18257812 65.17476562 -28.63671875 64.9609375 C-16.68338133 58.11653059 -7.13796513 44.14714695 -2.8984375 31.35546875 C-1.17236411 24.08130232 -1.29099615 17.09019081 -5.2421875 10.58984375 C-9.83471086 5.697808 -13.22229003 3.79458256 -19.9296875 3.33984375 C-28.16767306 3.49268207 -35.36227164 6.83810044 -41.2421875 12.58984375 Z M168.7578125 161.58984375 C169.7578125 163.58984375 169.7578125 163.58984375 169.7578125 163.58984375 Z M165.7578125 166.58984375 C166.7578125 168.58984375 166.7578125 168.58984375 166.7578125 168.58984375 Z " fill="#FCFDF9" transform="translate(621.2421875,171.41015625)"/>
<path d="M0 0 C5.33313859 4.43800049 8.63603603 10.34895746 9.3984375 17.30859375 C9.92921276 32.68066193 1.47405754 44.40150968 -8.25390625 55.53515625 C-17.28757423 64.92600385 -27.90963183 72.82394972 -38.875 79.8125 C-40.11932963 80.62892944 -41.36272906 81.44677744 -42.60546875 82.265625 C-49.88119653 87.04103843 -57.21166416 91.64955975 -64.75 96 C-71.46374141 99.87529298 -77.73464866 104.06466895 -83.875 108.8125 C-83.27171875 109.70710938 -82.6684375 110.60171875 -82.046875 111.5234375 C-71.59225594 127.24355349 -66.43105379 142.77281941 -69.33984375 161.86328125 C-73.07111001 177.11952375 -81.88513299 189.08247615 -94.7109375 197.98828125 C-107.9153152 205.60117555 -123.6077953 209.3833377 -138.65234375 205.5625 C-146.49750608 202.91527475 -153.74706691 198.18898285 -157.97265625 190.92578125 C-161.73863377 181.72978963 -161.13477994 170.19931641 -157.8125 161 C-155.16477614 154.94805975 -151.9989238 148.99597097 -147.875 143.8125 C-147.215 143.8125 -146.555 143.8125 -145.875 143.8125 C-145.606875 143.22855469 -145.33875 142.64460937 -145.0625 142.04296875 C-133.2306421 119.81931461 -101.71640052 104.3361514 -80.70800781 91.90478516 C-77.66275931 90.09012855 -74.64293484 88.23462189 -71.625 86.375 C-70.58859375 85.73691406 -69.5521875 85.09882813 -68.484375 84.44140625 C-66.59528378 83.26213823 -64.72794046 82.04779364 -62.875 80.8125 C-63.45507812 79.99072266 -63.45507812 79.99072266 -64.046875 79.15234375 C-72.56929675 66.1788552 -75.59486684 49.96220528 -72.59765625 34.7578125 C-70.48199527 26.13506449 -67.35498125 18.82954916 -61.875 11.8125 C-61.40835938 11.20792969 -60.94171875 10.60335937 -60.4609375 9.98046875 C-46.4594508 -5.92378409 -17.76957253 -12.67601428 0 0 Z M-43.859375 14.3359375 C-50.48907345 24.33527607 -52.03991956 33.981565 -50.875 45.8125 C-49.22041154 53.84765715 -45.23018652 59.72022319 -39.875 65.8125 C-35.19991263 64.28055047 -31.84542049 61.72286043 -28.0625 58.6875 C-27.4422998 58.1925 -26.82209961 57.6975 -26.18310547 57.1875 C-16.03295346 48.98878972 -2.55166195 37.13081802 -1.0625 23.375 C-0.61819337 17.75026711 -1.49753105 13.59510688 -5 9.0625 C-10.3779377 4.85367919 -15.76499878 3.25778775 -22.5859375 3.52734375 C-30.64818181 4.53168476 -38.77341272 7.86835555 -43.859375 14.3359375 Z M-108.875 123.8125 C-122.45028692 133.13959873 -122.45028692 133.13959873 -133.875 144.8125 C-135.54166667 146.47916667 -137.20833333 148.14583333 -138.875 149.8125 C-145.9238604 157.52219106 -150.55164171 168.26598481 -150.1796875 178.8046875 C-149.29361324 184.64368969 -146.51142721 188.62717297 -141.9375 192.25 C-135.04550507 197.27855296 -126.91740527 195.95885621 -118.875 194.8125 C-110.77732412 192.50574367 -102.61845145 187.16517816 -97.97265625 180.046875 C-91.73863257 167.35697627 -91.48192476 155.44184725 -95.609375 142.1875 C-98.48968632 134.50666982 -102.1769802 128.59679986 -108.875 123.8125 Z " fill="#FCFDF9" transform="translate(710.875,171.1875)"/>
<path d="M0 0 C1.32 0 2.64 0 4 0 C4.20753906 0.70382813 4.41507813 1.40765625 4.62890625 2.1328125 C6.48299925 8.07521936 8.68855284 13.60538869 11.5625 19.125 C19.17687207 34.03597584 20.34233203 48.19221377 15.25 64.1875 C13.40414418 69.88208622 11.11562328 74.88631396 8 80 C7.01 80 6.02 80 5 80 C5.33 72.41 5.66 64.82 6 57 C5.79375 59.68125 5.5875 62.3625 5.375 65.125 C3.8753668 80.7938194 -0.05026314 96.3377473 -8 110 C-8.40992188 110.77988281 -8.81984375 111.55976563 -9.2421875 112.36328125 C-17.20335783 127.42706433 -28.73476202 142.75437712 -42.40234375 153.04296875 C-44.48175002 154.60955904 -46.40593571 156.21560189 -48.35546875 157.93359375 C-74.65845001 180.64189344 -112.14250518 190.74135063 -146.2890625 188.75 C-168.10300772 187.0734425 -189.2510294 180.35258771 -208 169 C-208 168.34 -208 167.68 -208 167 C-203.19317411 167.9303534 -198.82237267 168.98220484 -194.3203125 170.9140625 C-189.21746247 172.99415701 -184.11583556 174.40274021 -178.75 175.625 C-177.82598389 175.83664795 -176.90196777 176.0482959 -175.94995117 176.26635742 C-173.30320891 176.86065604 -170.65323752 177.43549264 -168 178 C-166.23849609 178.37705078 -166.23849609 178.37705078 -164.44140625 178.76171875 C-128.18986388 185.1430764 -90.65053622 175.46514785 -60.55078125 154.859375 C-58.75584782 153.55097024 -57.00600579 152.17956034 -55.29296875 150.765625 C-53 149 -53 149 -51 149 C-51 148.34 -51 147.68 -51 147 C-49.06469234 145.17270951 -47.00952377 143.53104622 -44.9453125 141.8515625 C-42.95012582 139.95252939 -41.94355249 138.57332497 -41 136 C-41.26097383 131.12848849 -42.31670485 126.81556971 -43.625 122.125 C-46.08342129 112.47297159 -44.31071296 103.933581 -40 95 C-38.3671875 93.18359375 -38.3671875 93.18359375 -37 92 C-34 93 -34 93 -32.39453125 95.8515625 C-31.84746242 97.1009221 -31.32131215 98.35957758 -30.8125 99.625 C-30.54421387 100.28781982 -30.27592773 100.95063965 -29.99951172 101.63354492 C-27.33510591 108.81729048 -27.45784057 115.41980796 -28 123 C-28 123.66 -28 124.32 -28 125 C-22.72299798 117.43152276 -22.72299798 117.43152276 -20.49609375 108.6640625 C-21.49276182 103.39485609 -24.42306828 98.74489388 -26.91796875 94.046875 C-34.10055886 80.38227852 -34.901504 66.33525569 -30.94921875 51.55078125 C-29.92393806 48.79560309 -28.58763014 46.4681645 -27 44 C-23.70664506 45.35984803 -22.36555442 46.52370706 -20.78125 49.703125 C-20.21857422 50.80333984 -20.21857422 50.80333984 -19.64453125 51.92578125 C-19.26683594 52.69277344 -18.88914062 53.45976562 -18.5 54.25 C-15.91453483 59.39445801 -13.25422897 64.23363466 -10 69 C-7.90602023 73.34306915 -6.58394667 77.2116373 -6 82 C-3.99809737 72.36494346 -6.62869434 63.40403766 -10.11328125 54.4140625 C-15.03772719 41.00742112 -12.10793962 23.32396457 -6.359375 10.7109375 C-2.01287554 2.04291845 -2.01287554 2.04291845 0 0 Z " fill="#FCFCF8" transform="translate(785,230)"/>
<path d="M0 0 C2.625 -0.1875 2.625 -0.1875 5 0 C8.81501353 8.2714895 12.44505824 16.61374112 16 25 C16.4228125 25.98871094 16.845625 26.97742188 17.28125 27.99609375 C19.7414686 33.80757167 22.06563835 39.66581298 24.3125 45.5625 C24.57933594 46.2539209 24.84617187 46.9453418 25.12109375 47.65771484 C26.22312547 50.58462408 27 52.84487977 27 56 C23.83263796 57.58368102 21.4846985 57.42056706 18 57 C14.15800775 52.73111972 13.0791764 48.5444704 11 43 C0.11 42.505 0.11 42.505 -11 42 C-11.33 43.65 -11.66 45.3 -12 47 C-12.64896826 48.7853143 -13.33687105 50.55694608 -14.0625 52.3125 C-14.60583984 53.63701172 -14.60583984 53.63701172 -15.16015625 54.98828125 C-15.43730469 55.65214844 -15.71445312 56.31601562 -16 57 C-18.89740622 57.13539281 -21.78845621 57.23426829 -24.6875 57.3125 C-25.50412109 57.35439453 -26.32074219 57.39628906 -27.16210938 57.43945312 C-31.43820556 57.52601378 -33.36916972 57.4810834 -36.86328125 54.81640625 C-38.89033387 52.14455079 -40.75899938 49.49108121 -42.5 46.625 C-44.54722408 43.30554039 -46.61746133 40.07250976 -48.9375 36.9375 C-51 34 -51 34 -51 32 C-52.98 32.495 -52.98 32.495 -55 33 C-55.02505615 33.69150146 -55.0501123 34.38300293 -55.07592773 35.09545898 C-55.19152161 38.20967866 -55.31441242 41.32356789 -55.4375 44.4375 C-55.47681641 45.52611328 -55.51613281 46.61472656 -55.55664062 47.73632812 C-55.59853516 48.77080078 -55.64042969 49.80527344 -55.68359375 50.87109375 C-55.73858032 52.30859985 -55.73858032 52.30859985 -55.79467773 53.77514648 C-56 56 -56 56 -57 57 C-58.8125 57.1328125 -58.8125 57.1328125 -61 57.125 C-61.721875 57.12757813 -62.44375 57.13015625 -63.1875 57.1328125 C-65 57 -65 57 -66 56 C-66.0987517 54.31744765 -66.12798904 52.63075972 -66.12939453 50.9453125 C-66.13254669 49.86749512 -66.13569885 48.78967773 -66.13894653 47.67919922 C-66.1369223 46.50631348 -66.13489807 45.33342773 -66.1328125 44.125 C-66.13376923 42.9302002 -66.13472595 41.73540039 -66.13571167 40.50439453 C-66.13639371 37.9723302 -66.13453778 35.44026412 -66.13037109 32.90820312 C-66.12502321 29.0168874 -66.13031533 25.12568711 -66.13671875 21.234375 C-66.13605797 18.78124974 -66.13477682 16.32812456 -66.1328125 13.875 C-66.13483673 12.70211426 -66.13686096 11.52922852 -66.13894653 10.32080078 C-66.13579437 9.2429834 -66.13264221 8.16516602 -66.12939453 7.0546875 C-66.12859894 6.10062012 -66.12780334 5.14655273 -66.12698364 4.16357422 C-66 2 -66 2 -65 1 C-61.32045343 0.71738616 -57.62658911 0.7680727 -53.9375 0.75 C-52.91205078 0.729375 -51.88660156 0.70875 -50.83007812 0.6875 C-43.08660109 0.64786608 -37.1047742 1.29157995 -31.0625 6.5625 C-27.66957236 10.57232358 -27.65963761 13.39543803 -27.71875 18.5234375 C-28.12071753 22.06298488 -29.36964663 23.65400916 -32 26 C-34.99506543 28.11846092 -36.30650564 29 -40 29 C-35.73722797 37.68259356 -29.85659484 46.14340516 -23 53 C-19.53081652 46.28870687 -16.4436095 39.5077008 -13.625 32.5 C-13.04963501 31.08400513 -13.04963501 31.08400513 -12.46264648 29.6394043 C-9.6294812 22.64019958 -6.87350903 15.61151879 -4.20751953 8.546875 C-3.01982195 5.43398729 -1.85716244 2.78574366 0 0 Z M-56 8 C-56.08631874 9.34267413 -56.10706473 10.68974322 -56.09765625 12.03515625 C-56.09443359 12.84404297 -56.09121094 13.65292969 -56.08789062 14.48632812 C-56.07951172 15.33646484 -56.07113281 16.18660156 -56.0625 17.0625 C-56.05798828 17.91650391 -56.05347656 18.77050781 -56.04882812 19.65039062 C-56.03700373 21.76695663 -56.01906769 23.88348685 -56 26 C-49.94445811 26.13848433 -46.39124591 25.80344788 -41 23 C-38.55785778 21.00630631 -38.55785778 21.00630631 -38.8125 17.0625 C-38.83809684 14.32363845 -39.11335844 12.65992468 -40 10 C-43.55519785 7.60024145 -52.235277 4.235277 -56 8 Z M0 16 C-3.51919364 22.53763246 -6.05419294 28.83123715 -8 36 C-2.72 36 2.56 36 8 36 C7.33533318 32.67666588 6.82159397 30.24432568 5.58984375 27.23046875 C5.32236328 26.56982422 5.05488281 25.90917969 4.77929688 25.22851562 C4.50150391 24.55498047 4.22371094 23.88144531 3.9375 23.1875 C3.65583984 22.49462891 3.37417969 21.80175781 3.08398438 21.08789062 C2.39325027 19.39032376 1.69716272 17.69493688 1 16 C0.67 16 0.34 16 0 16 Z " fill="#FCFDF8" transform="translate(488,473)"/>
<path d="M0 0 C0.78101074 0.00248749 1.56202148 0.00497498 2.36669922 0.00753784 C27.54289948 0.13185599 48.07901656 5.71572634 70 18.3125 C71.30714972 19.05884241 72.61443941 19.80493973 73.921875 20.55078125 C74.93765625 21.13214844 75.9534375 21.71351563 77 22.3125 C77 22.9725 77 23.6325 77 24.3125 C72.44430429 23.65289155 68.5254555 21.89373459 64.375 20 C31.06166411 5.22371151 -6.15122191 2.43938264 -40.73046875 15.4921875 C-56.73349138 22.04710834 -71.81659871 32.01400178 -84.328125 43.9140625 C-86 45.3125 -86 45.3125 -88 45.3125 C-88.38478516 46.18068359 -88.38478516 46.18068359 -88.77734375 47.06640625 C-90.1147796 49.5233571 -91.63738445 51.22376727 -93.5625 53.25 C-122.04460388 84.72478871 -127.76417797 122.73052377 -130 163.3125 C-130.66 162.9825 -131.32 162.6525 -132 162.3125 C-139.90027544 131.98563623 -128.7622904 92.68544929 -113.6484375 66.078125 C-108.30638957 57.05485815 -102.04995258 49.05427036 -95 41.3125 C-94.12988281 40.33603516 -94.12988281 40.33603516 -93.2421875 39.33984375 C-76.04010647 21.05722999 -51.35517259 7.81665493 -27 2.3125 C-26.33258789 2.13807373 -25.66517578 1.96364746 -24.97753906 1.78393555 C-16.7320709 -0.17475471 -8.420789 -0.04249897 0 0 Z " fill="#FCFDF8" transform="translate(633,124.6875)"/>
<path d="M0 0 C0.84530273 -0.00427002 1.69060547 -0.00854004 2.56152344 -0.01293945 C3.4590332 -0.00351318 4.35654297 0.00591309 5.28125 0.015625 C6.19165039 0.02311768 7.10205078 0.03061035 8.04003906 0.03833008 C19.63116519 0.22417848 28.15677375 1.64114875 36.59375 10.078125 C41.62822101 17.41406846 43.48951899 25.43370801 42.4140625 34.2890625 C40.77267616 42.33388195 37.68708841 48.01716443 30.7578125 52.60546875 C25.05225439 55.67685157 19.4281565 56.39092209 12.98046875 56.3984375 C11.92150391 56.39972656 10.86253906 56.40101563 9.77148438 56.40234375 C8.13663086 56.39654297 8.13663086 56.39654297 6.46875 56.390625 C5.35951172 56.39449219 4.25027344 56.39835938 3.10742188 56.40234375 C1.52864258 56.40041016 1.52864258 56.40041016 -0.08203125 56.3984375 C-1.04407471 56.39730957 -2.00611816 56.39618164 -2.99731445 56.39501953 C-5.21875 56.265625 -5.21875 56.265625 -6.21875 55.265625 C-6.32264938 53.61918212 -6.35727583 51.96830768 -6.36401367 50.31860352 C-6.37039352 49.26403458 -6.37677338 48.20946564 -6.38334656 47.12294006 C-6.38445938 45.97506516 -6.3855722 44.82719025 -6.38671875 43.64453125 C-6.39004715 42.47429916 -6.39337555 41.30406708 -6.39680481 40.09837341 C-6.40187909 37.61758824 -6.40421298 35.13679622 -6.40405273 32.65600586 C-6.40623857 28.84803081 -6.42438751 25.04034557 -6.44335938 21.23242188 C-6.44629324 18.828126 -6.44827808 16.42382873 -6.44921875 14.01953125 C-6.45640427 12.87368057 -6.46358978 11.7278299 -6.47099304 10.54725647 C-6.46791641 9.48953537 -6.46483978 8.43181427 -6.46166992 7.34204102 C-6.46309494 6.40795914 -6.46451996 5.47387726 -6.46598816 4.51148987 C-5.99798387 0.26022703 -3.74075251 0.01104864 0 0 Z M4.78125 7.265625 C4.78125 21.455625 4.78125 35.645625 4.78125 50.265625 C16.33449379 50.89684035 16.33449379 50.89684035 25.46484375 45.75390625 C30.70942056 40.1571756 32.23752671 34.1654329 32.03125 26.59765625 C31.27852245 19.57611959 28.81371296 14.18105394 23.78125 9.265625 C18.12581977 5.319976 11.22654171 5.11719443 4.78125 7.265625 Z " fill="#FCFDF9" transform="translate(871.21875,473.734375)"/>
<path d="M0 0 C1 1 1 1 1.11352539 3.13305664 C1.10828857 4.04949951 1.10305176 4.96594238 1.09765625 5.91015625 C1.09515869 6.800979 1.09266113 7.69180176 1.09008789 8.60961914 C1.07643188 10.31879517 1.07643188 10.31879517 1.0625 12.0625 C1.041875 15.671875 1.02125 19.28125 1 23 C8.26 22.67 15.52 22.34 23 22 C23 18.7 23 15.4 23 12 C23.13218771 9.95581142 23.29099814 7.91276809 23.5 5.875 C23.63921875 4.47894531 23.63921875 4.47894531 23.78125 3.0546875 C23.8534375 2.37664062 23.925625 1.69859375 24 1 C30.625 -0.25 30.625 -0.25 34 2 C34.36749268 4.24586487 34.36749268 4.24586487 34.35644531 7.07641602 C34.35944641 8.13413712 34.36244751 9.19185822 34.36553955 10.28163147 C34.35319275 11.42748215 34.34084595 12.57333282 34.328125 13.75390625 C34.32625183 14.92509506 34.32437866 16.09628387 34.32244873 17.30296326 C34.31571718 19.78200115 34.30178103 22.26102822 34.28125 24.73999023 C34.25010164 28.55006696 34.24028189 32.35973048 34.234375 36.16992188 C34.22520535 38.57292175 34.2148297 40.97591739 34.203125 43.37890625 C34.19675018 45.10071861 34.19675018 45.10071861 34.19024658 46.85731506 C34.18063904 47.911884 34.17103149 48.96645294 34.16113281 50.05297852 C34.15430481 50.9862648 34.14747681 51.91955109 34.14044189 52.88111877 C34 55 34 55 33 56 C30.32941149 56.14115161 27.67567762 56.04247107 25 56 C23.11585358 52.80542649 22.76180263 50.48497371 22.8046875 46.796875 C22.81113281 45.8171875 22.81757812 44.8375 22.82421875 43.828125 C22.84097656 42.81234375 22.85773437 41.7965625 22.875 40.75 C22.88402344 39.71875 22.89304687 38.6875 22.90234375 37.625 C22.92587862 35.08323384 22.96174869 32.54158728 23 30 C16.07 30 9.14 30 2 30 C1.93941406 31.79308594 1.87882813 33.58617187 1.81640625 35.43359375 C1.73202151 37.76823824 1.64737249 40.10287319 1.5625 42.4375 C1.52318359 43.62150391 1.48386719 44.80550781 1.44335938 46.02539062 C1.40146484 47.15009766 1.35957031 48.27480469 1.31640625 49.43359375 C1.27974854 50.47572021 1.24309082 51.51784668 1.20532227 52.59155273 C1 55 1 55 0 56 C-3.4375 56.1875 -3.4375 56.1875 -7 56 C-9 54 -9 54 -9.24050903 51.74740601 C-9.2338472 50.34175888 -9.2338472 50.34175888 -9.22705078 48.90771484 C-9.22682419 47.31629166 -9.22682419 47.31629166 -9.22659302 45.69271851 C-9.21110916 43.96923691 -9.21110916 43.96923691 -9.1953125 42.2109375 C-9.1924826 41.03737701 -9.18965271 39.86381653 -9.18673706 38.6546936 C-9.17551355 34.89469338 -9.15040492 31.13492861 -9.125 27.375 C-9.11497301 24.8307326 -9.10584668 22.28646148 -9.09765625 19.7421875 C-9.07556714 13.4947109 -9.04206824 7.24737227 -9 1 C-6.01787087 -0.49106457 -3.28390342 -0.11941467 0 0 Z " fill="#FCFDF8" transform="translate(749,474)"/>
<path d="M0 0 C1 1 1 1 1.11352539 3.13305664 C1.10828857 4.04949951 1.10305176 4.96594238 1.09765625 5.91015625 C1.09515869 6.800979 1.09266113 7.69180176 1.09008789 8.60961914 C1.07643188 10.31879517 1.07643188 10.31879517 1.0625 12.0625 C1.041875 15.671875 1.02125 19.28125 1 23 C8.26 23 15.52 23 23 23 C22.9604134 15.80477218 22.9604134 15.80477218 22.90991211 8.60961914 C22.90741455 7.71879639 22.90491699 6.82797363 22.90234375 5.91015625 C22.89710693 4.99371338 22.89187012 4.07727051 22.88647461 3.13305664 C23 1 23 1 24 0 C25.8125 -0.1328125 25.8125 -0.1328125 28 -0.125 C28.721875 -0.12757813 29.44375 -0.13015625 30.1875 -0.1328125 C32 0 32 0 33 1 C33.0987517 2.68255235 33.12798904 4.36924028 33.12939453 6.0546875 C33.13254669 7.13250488 33.13569885 8.21032227 33.13894653 9.32080078 C33.1369223 10.49368652 33.13489807 11.66657227 33.1328125 12.875 C33.13376923 14.0697998 33.13472595 15.26459961 33.13571167 16.49560547 C33.13639371 19.0276698 33.13453778 21.55973588 33.13037109 24.09179688 C33.12502321 27.9831126 33.13031533 31.87431289 33.13671875 35.765625 C33.13605797 38.21875026 33.13477682 40.67187544 33.1328125 43.125 C33.13483673 44.29788574 33.13686096 45.47077148 33.13894653 46.67919922 C33.13421829 48.29592529 33.13421829 48.29592529 33.12939453 49.9453125 C33.12859894 50.89937988 33.12780334 51.85344727 33.12698364 52.83642578 C33 55 33 55 32 56 C30.1875 56.1328125 30.1875 56.1328125 28 56.125 C27.278125 56.12757813 26.55625 56.13015625 25.8125 56.1328125 C24 56 24 56 23 55 C22.91262355 53.14630389 22.89301847 51.28932459 22.90234375 49.43359375 C22.90556641 48.30888672 22.90878906 47.18417969 22.91210938 46.02539062 C22.92467773 44.24938477 22.92467773 44.24938477 22.9375 42.4375 C22.94201172 41.24962891 22.94652344 40.06175781 22.95117188 38.83789062 C22.96300314 35.89190588 22.98093924 32.94594684 23 30 C15.74 30 8.48 30 1 30 C1.02320313 31.70929688 1.04640625 33.41859375 1.0703125 35.1796875 C1.08906684 37.41145398 1.1072674 39.64322517 1.125 41.875 C1.14175781 43.00292969 1.15851563 44.13085938 1.17578125 45.29296875 C1.18222656 46.36933594 1.18867188 47.44570313 1.1953125 48.5546875 C1.20578613 49.54968262 1.21625977 50.54467773 1.22705078 51.56982422 C1 54 1 54 -1 56 C-4.625 56.125 -4.625 56.125 -8 56 C-9.8842848 52.80928314 -10.22643573 50.54800331 -10.13525391 46.86425781 C-10.11508209 45.84350159 -10.09491028 44.82274536 -10.0741272 43.77105713 C-10.04193085 42.67613953 -10.0097345 41.58122192 -9.9765625 40.453125 C-9.95153656 39.3267865 -9.92651062 38.200448 -9.90072632 37.03997803 C-9.81856463 33.44301085 -9.72195881 29.84659579 -9.625 26.25 C-9.56675663 23.81122046 -9.50945343 21.37241827 -9.453125 18.93359375 C-9.31299137 12.95542356 -9.16099754 6.97764272 -9 1 C-6.01787087 -0.49106457 -3.28390342 -0.11941467 0 0 Z " fill="#FCFDF8" transform="translate(379,474)"/>
<path d="M0 0 C5.1752553 0.51752553 6.83510719 3.08413006 10.08544922 6.97265625 C11.43703173 8.65068656 12.75396257 10.35073918 14.0625 12.0625 C14.7440918 12.93358398 14.7440918 12.93358398 15.43945312 13.82226562 C18.75 18.1284657 18.75 18.1284657 18.75 20.375 C19.41 20.375 20.07 20.375 20.75 20.375 C22.30961601 22.11501935 23.79949575 23.91803197 25.25 25.75 C28.35759138 29.68982541 28.35759138 29.68982541 31.75 33.375 C31.76981934 32.51221436 31.78963867 31.64942871 31.81005859 30.76049805 C31.88819644 27.55663044 31.97489082 24.35314106 32.06738281 21.1496582 C32.1056435 19.76368093 32.14050156 18.37760535 32.171875 16.99145508 C32.21758699 14.9979836 32.27658925 13.00483086 32.3359375 11.01171875 C32.3673584 9.81248779 32.3987793 8.61325684 32.43115234 7.37768555 C32.75 4.375 32.75 4.375 34.75 1.375 C36.07 1.705 37.39 2.035 38.75 2.375 C38.91900997 8.29724722 39.07940523 14.21964561 39.23217773 20.14233398 C39.28520808 22.15281286 39.34050118 24.16323348 39.39819336 26.17358398 C39.4812051 29.08043861 39.55579678 31.98741265 39.62890625 34.89453125 C39.65594131 35.77832962 39.68297638 36.66212799 39.71083069 37.57270813 C39.85875542 43.90344932 39.43868089 50.08196931 38.75 56.375 C33.89830587 55.62492398 32.45096006 54.36546531 29.4375 50.4375 C28.26960937 48.94089844 28.26960937 48.94089844 27.078125 47.4140625 C26.30984375 46.41117188 25.5415625 45.40828125 24.75 44.375 C23.39961103 42.68447546 22.04563821 40.99680526 20.6875 39.3125 C20.04683594 38.50683594 19.40617188 37.70117188 18.74609375 36.87109375 C17.33303921 35.10408426 15.90725143 33.34722258 14.47265625 31.59765625 C13.73917969 30.69917969 13.00570312 29.80070312 12.25 28.875 C11.5796875 28.0603125 10.909375 27.245625 10.21875 26.40625 C8.75 24.375 8.75 24.375 8.75 22.375 C8.09 22.375 7.43 22.375 6.75 22.375 C5.125 20.375 5.125 20.375 3.75 18.375 C1.71876925 20.40623075 2.49330382 24.55268866 2.43359375 27.34765625 C2.41281265 28.14529892 2.39203156 28.94294159 2.37062073 29.76475525 C2.30503842 32.32224611 2.24620033 34.8798428 2.1875 37.4375 C2.14432301 39.16732882 2.10070899 40.89714679 2.05664062 42.62695312 C1.94934828 46.8761926 1.84810574 51.1255389 1.75 55.375 C-0.125 56 -0.125 56 -2.25 56.375 C-4.25 54.375 -4.25 54.375 -4.49723816 52.12913513 C-4.49581314 51.19505325 -4.49438812 50.26097137 -4.49291992 49.29858398 C-4.49599655 48.24086288 -4.49907318 47.18314178 -4.50224304 46.09336853 C-4.49505753 44.94751785 -4.48787201 43.80166718 -4.48046875 42.62109375 C-4.47978142 40.86431053 -4.47978142 40.86431053 -4.4790802 39.07203674 C-4.47605516 36.59301746 -4.46816139 34.11400013 -4.45581055 31.63500977 C-4.43755971 27.82496464 -4.43530076 24.01516239 -4.43554688 20.20507812 C-4.43063171 17.80208122 -4.42480339 15.39908597 -4.41796875 12.99609375 C-4.41685593 11.84821884 -4.4157431 10.70034393 -4.41459656 9.51768494 C-4.40821671 8.463116 -4.40183685 7.40854706 -4.39526367 6.32202148 C-4.39145187 5.3887352 -4.38764008 4.45544891 -4.38371277 3.49388123 C-4.16527178 0.03235307 -3.56380942 0.41120878 0 0 Z " fill="#FCFDF8" transform="translate(816.25,473.625)"/>
<path d="M0 0 C4.19102053 0.63661071 5.84085919 2.49027938 8.4375 5.75 C9.76549881 7.5721379 11.07846749 9.40533992 12.375 11.25 C13.47062229 12.67328503 14.57453046 14.09023858 15.6875 15.5 C16.24308594 16.21800781 16.79867187 16.93601562 17.37109375 17.67578125 C18.97999744 19.74257956 20.59801432 21.8010725 22.22265625 23.85546875 C22.72176514 24.48743164 23.22087402 25.11939453 23.73510742 25.77050781 C24.73254747 27.03269947 25.73137344 28.29379734 26.73168945 29.55371094 C30.26367751 34.02735501 30.26367751 34.02735501 31.375 36.25 C31.705 25.03 32.035 13.81 32.375 2.25 C34.025 1.92 35.675 1.59 37.375 1.25 C39.02390931 2.89890931 38.51077942 4.81892364 38.52026367 7.08935547 C38.52664352 8.12067596 38.53302338 9.15199646 38.53959656 10.21456909 C38.54070938 11.33743317 38.5418222 12.46029724 38.54296875 13.6171875 C38.54796135 15.33568405 38.54796135 15.33568405 38.55305481 17.08889771 C38.55812942 19.51840817 38.56046297 21.94792564 38.56030273 24.37744141 C38.56248652 28.10200465 38.58062941 31.82627059 38.59960938 35.55078125 C38.60254367 37.90624898 38.60452822 40.26171813 38.60546875 42.6171875 C38.61265427 43.73600311 38.61983978 44.85481873 38.62724304 46.00753784 C38.62416641 47.04516266 38.62108978 48.08278748 38.61791992 49.15185547 C38.61934494 50.06595184 38.62076996 50.98004822 38.62223816 51.92184448 C38.375 54.25 38.375 54.25 36.375 57.25 C33.05630359 55.8582886 31.47100576 54.38354851 29.4375 51.4375 C27.71030772 49.02546091 26.13588844 47.01718085 24 44.9375 C21.59320669 42.47340209 19.73867657 40.05112371 17.75 37.25 C14.56520914 32.76836741 11.17713747 28.5497509 7.6015625 24.375 C6.844198 23.48554688 6.844198 23.48554688 6.0715332 22.578125 C4.84124237 21.13380724 3.60838941 19.6916726 2.375 18.25 C2.33741577 19.92340454 2.33741577 19.92340454 2.29907227 21.63061523 C2.20516579 25.7549259 2.10490486 29.8790615 2.00268555 34.00317383 C1.959273 35.7908927 1.91760271 37.57865474 1.87768555 39.36645508 C1.8201354 41.93063391 1.75639797 44.49459412 1.69140625 47.05859375 C1.66633751 48.26484657 1.66633751 48.26484657 1.64076233 49.49546814 C1.48887171 55.13612829 1.48887171 55.13612829 0.375 56.25 C-1.29117115 56.29063832 -2.95888095 56.292721 -4.625 56.25 C-5.66458958 50.2628973 -5.78611701 44.42427985 -5.79296875 38.35546875 C-5.79629715 37.32690262 -5.79962555 36.29833649 -5.80305481 35.23860168 C-5.80809689 33.07614589 -5.81046398 30.91368237 -5.81030273 28.7512207 C-5.81250429 25.43102481 -5.83072963 22.11115348 -5.84960938 18.79101562 C-5.85254077 16.68750114 -5.85452726 14.58398507 -5.85546875 12.48046875 C-5.86265427 11.48468307 -5.86983978 10.4888974 -5.87724304 9.4629364 C-5.87416641 8.54470596 -5.87108978 7.62647552 -5.86791992 6.68041992 C-5.86934494 5.87102463 -5.87076996 5.06162933 -5.87223816 4.22770691 C-5.38487178 0.32916688 -3.66415377 0.25270026 0 0 Z " fill="#FCFDF8" transform="translate(609.625,473.75)"/>
<path d="M0 0 C2.20576197 -0.00218874 4.41102562 -0.02035586 6.61669922 -0.03930664 C8.01383292 -0.0422402 9.410969 -0.04422525 10.80810547 -0.04516602 C12.08363281 -0.0492749 13.35916016 -0.05338379 14.67333984 -0.05761719 C17.71435547 0.18530273 17.71435547 0.18530273 19.71435547 2.18530273 C19.33935547 5.31030273 19.33935547 5.31030273 18.71435547 8.18530273 C18.05314697 8.14977295 17.39193848 8.11424316 16.71069336 8.07763672 C13.73300259 7.92064026 10.7549659 7.7716164 7.77685547 7.62280273 C6.21547852 7.53869141 6.21547852 7.53869141 4.62255859 7.45288086 C3.63320313 7.40454102 2.64384766 7.35620117 1.62451172 7.30639648 C0.70806885 7.25926514 -0.20837402 7.21213379 -1.15258789 7.16357422 C-3.26993839 6.93630743 -3.26993839 6.93630743 -4.28564453 8.18530273 C-4.52217976 10.71126533 -4.70738145 13.2163748 -4.84814453 15.74780273 C-4.89132812 16.4587207 -4.93451172 17.16963867 -4.97900391 17.90209961 C-5.0853623 19.66292185 -5.18603299 21.42408593 -5.28564453 23.18530273 C-3.99787109 23.17370117 -2.71009766 23.16209961 -1.38330078 23.15014648 C0.29508319 23.14077004 1.97346873 23.13166968 3.65185547 23.12280273 C4.92706055 23.11023438 4.92706055 23.11023438 6.22802734 23.09741211 C7.03691406 23.09418945 7.84580078 23.0909668 8.67919922 23.08764648 C9.42806396 23.08240967 10.17692871 23.07717285 10.94848633 23.07177734 C12.71435547 23.18530273 12.71435547 23.18530273 13.71435547 24.18530273 C13.83935547 26.68530273 13.83935547 26.68530273 13.71435547 29.18530273 C11.61495762 31.28470058 7.07117019 30.60455469 4.15185547 30.74780273 C1.36748047 30.89217773 -1.41689453 31.03655273 -4.28564453 31.18530273 C-4.28564453 37.12530273 -4.28564453 43.06530273 -4.28564453 49.18530273 C3.63435547 48.85530273 11.55435547 48.52530273 19.71435547 48.18530273 C19.71435547 50.49530273 19.71435547 52.80530273 19.71435547 55.18530273 C16.76714938 56.65890578 13.78400179 56.32763869 10.55419922 56.31811523 C9.84912735 56.31907196 9.14405548 56.32002869 8.4176178 56.3210144 C6.92725536 56.32169502 5.43688995 56.31984895 3.9465332 56.31567383 C1.65748489 56.31031591 -0.6313679 56.31562682 -2.92041016 56.32202148 C-4.36637413 56.32136084 -5.81233799 56.32007996 -7.25830078 56.31811523 C-8.2910891 56.32115158 -8.2910891 56.32115158 -9.34474182 56.32424927 C-14.17068689 56.30026037 -14.17068689 56.30026037 -15.28564453 55.18530273 C-15.37917616 53.49728288 -15.40309244 51.80535066 -15.39916992 50.11474609 C-15.39909439 49.03370102 -15.39901886 47.95265594 -15.39894104 46.83885193 C-15.39377975 45.66282913 -15.38861847 44.48680634 -15.38330078 43.27514648 C-15.38188583 42.07797501 -15.38047089 40.88080353 -15.37901306 39.64735413 C-15.37339432 35.80581207 -15.36083864 31.96432731 -15.34814453 28.12280273 C-15.34313195 25.52579836 -15.33856862 22.92879309 -15.33447266 20.33178711 C-15.32341881 13.94960595 -15.30666245 7.56745843 -15.28564453 1.18530273 C-10.8799275 -1.01755578 -4.89985645 -0.00054674 0 0 Z " fill="#FCFDF7" transform="translate(935.28564453125,473.814697265625)"/>
<path d="M0 0 C1.87719727 0.30371094 1.87719727 0.30371094 4 1 C5.51287493 3.41819373 6.73935493 5.68187489 7.9375 8.25 C8.2873999 8.97437256 8.6372998 9.69874512 8.99780273 10.44506836 C11.52561885 15.76171556 13.68482188 21.17343042 15.71484375 26.69921875 C17.68025851 31.74716852 20.01877183 36.6060002 22.3515625 41.4921875 C22.89554688 42.64976562 23.43953125 43.80734375 24 45 C24.4345752 45.90347168 24.4345752 45.90347168 24.87792969 46.82519531 C26.50894121 50.3644712 27.35478196 53.09739846 27 57 C23.62153213 57.2852365 20.37139878 57.41527765 17 57 C15.125 55.0625 15.125 55.0625 14 52 C12.68 49.03 11.36 46.06 10 43 C2.74 42.67 -4.52 42.34 -12 42 C-12.474375 43.753125 -12.94875 45.50625 -13.4375 47.3125 C-14.22970982 50.24023193 -15.04071468 53.12214405 -16 56 C-18.97 56.495 -18.97 56.495 -22 57 C-23.39453159 53.26366635 -22.57868662 51.17697591 -21.0859375 47.5625 C-20.65410156 46.50160156 -20.22226562 45.44070313 -19.77734375 44.34765625 C-19.31457031 43.24292969 -18.85179687 42.13820313 -18.375 41 C-17.93542969 39.92621094 -17.49585938 38.85242188 -17.04296875 37.74609375 C-15.70770622 34.49212553 -14.35390893 31.2462459 -13 28 C-12.57082275 26.95038086 -12.14164551 25.90076172 -11.69946289 24.81933594 C-9.24522821 18.83829265 -6.63658658 13.00267743 -3.6875 7.25 C-3.32849609 6.54101562 -2.96949219 5.83203125 -2.59960938 5.1015625 C-1.73687886 3.39910762 -0.86903127 1.69924724 0 0 Z M-1 17 C-1.98838433 19.0372203 -2.96532252 21.07999607 -3.9375 23.125 C-4.48277344 24.26195312 -5.02804687 25.39890625 -5.58984375 26.5703125 C-7.28391223 30.3279953 -7.28391223 30.3279953 -8 36 C-2.72 36 2.56 36 8 36 C5.47448226 29.5960086 2.84629905 23.26791387 0 17 C-0.33 17 -0.66 17 -1 17 Z " fill="#FCFCF8" transform="translate(573,473)"/>
<path d="M0 0 C0.495 2.97 0.495 2.97 1 6 C-2.34910856 7.14415247 -4.11431331 6.84961317 -7.375 5.5625 C-11.08130532 4.24186247 -14.02379575 3.4451808 -18 4 C-20.44245747 5.03942845 -20.44245747 5.03942845 -22 7 C-22.91890424 9.36612547 -22.91890424 9.36612547 -22 12 C-18.08138325 16.09673569 -13.94542169 18.64134982 -9 21.375 C-2.99291993 24.8119241 2.51927153 28.44152703 4.74609375 35.296875 C5.56206738 40.31048615 4.96658976 43.74788801 2 48 C-4.00521365 53.54327413 -8.48475706 54.34256952 -16.375 54.3125 C-17.21289062 54.32861328 -18.05078125 54.34472656 -18.9140625 54.36132812 C-24.0065474 54.36533165 -27.61835531 53.88853647 -32 51 C-32.875 48.8125 -32.875 48.8125 -33 47 C-29.2926544 45.82969002 -26.95362072 46.48964276 -23.22265625 47.5078125 C-18.54691878 48.54321306 -13.91597289 48.8621878 -9.5 46.875 C-7.37991505 44.22489382 -7.06757321 42.37866049 -7 39 C-8.98059371 34.82825112 -11.2074067 32.86618171 -15.125 30.5 C-16.09695313 29.90316406 -17.06890625 29.30632812 -18.0703125 28.69140625 C-20.67873209 27.18547868 -23.3177314 25.80501727 -26 24.4375 C-29.93727949 22.27516583 -31.67039019 20.43203271 -33 16 C-33.76940572 9.95466934 -32.35793228 6.85034663 -29 2 C-21.50110751 -5.76671008 -9.07597129 -2.95955586 0 0 Z " fill="#FCFDF9" transform="translate(358,476)"/>
<path d="M0 0 C0 1.98 0 3.96 0 6 C-3.40864956 7.13621652 -4.53195113 6.52874728 -7.8203125 5.484375 C-12.12179311 4.52849042 -16.6210657 4.67423153 -21 5 C-22.29524348 6.09354906 -22.29524348 6.09354906 -22.375 8.75 C-21.86920842 13.13352704 -20.29596125 14.11931238 -17 17 C-13.94433107 19.01792699 -10.73751737 20.75992861 -7.52734375 22.51757812 C-2.44811581 25.41632942 1.79076127 28.56413419 3.8125 34.30859375 C4.28238138 39.6437053 3.79756857 43.24413343 1 48 C-4.90145591 53.59881714 -9.55120295 54.3423163 -17.375 54.3125 C-18.21289062 54.32861328 -19.05078125 54.34472656 -19.9140625 54.36132812 C-25.0065474 54.36533165 -28.61835531 53.88853647 -33 51 C-33.875 48.8125 -33.875 48.8125 -34 47 C-30.87041855 45.99431428 -28.96056678 46.06016991 -25.8125 46.9375 C-20.28379199 48.26949896 -14.84617027 49.11070059 -9.4375 47 C-7.57387107 44.40712497 -7.3139495 42.14065836 -7.50390625 38.98046875 C-8.40346293 35.38932514 -11.03807048 33.85191387 -14 32 C-14.87011719 31.44441406 -15.74023438 30.88882813 -16.63671875 30.31640625 C-18.5480188 29.10391713 -20.45947758 27.89167816 -22.37109375 26.6796875 C-23.23863281 26.12539063 -24.10617187 25.57109375 -25 25 C-25.65097656 24.59007812 -26.30195312 24.18015625 -26.97265625 23.7578125 C-30.20261608 21.45636692 -31.4986837 19.28789418 -32.5 15.5625 C-33.36402657 10.24609161 -32.09255505 6.95749446 -29.5 2.3125 C-21.53800335 -5.0523469 -9.42396019 -3.8205244 0 0 Z " fill="#FCFDF8" transform="translate(729,476)"/>
<path d="M0 0 C1.43583001 -0.10836453 2.8740202 -0.18576167 4.3125 -0.25 C5.11300781 -0.29640625 5.91351562 -0.3428125 6.73828125 -0.390625 C9 0 9 0 10.51098633 1.69384766 C12.11316847 4.17527289 13.09128535 6.5093867 14.0859375 9.2890625 C14.45976563 10.31386719 14.83359375 11.33867187 15.21875 12.39453125 C15.6003125 13.46058594 15.981875 14.52664063 16.375 15.625 C19.14610167 23.35541812 22.14331348 30.74166339 26 38 C30.06101816 29.75248278 33.53923584 21.75076482 36.10546875 12.89453125 C37.34155502 8.89479358 38.80293407 5.57023214 41 2 C43.125 1.296875 43.125 1.296875 45 1 C46.26866146 4.80598438 45.5091063 6.39305698 44.3125 10.1875 C43.97863281 11.27417969 43.64476562 12.36085938 43.30078125 13.48046875 C42.33472251 16.09433938 41.34361355 18.36555492 40.0703125 20.81640625 C37.75752975 25.31195528 36.16284181 29.96322638 34.5625 34.75 C31.98310352 42.30469436 29.22314065 49.69223409 26 57 C24.68 57 23.36 57 22 57 C21.57589844 56.01902344 21.15179687 55.03804687 20.71484375 54.02734375 C20.12288747 52.66384895 19.53039657 51.30058619 18.9375 49.9375 C18.62095459 49.20942139 18.30440918 48.48134277 17.97827148 47.73120117 C15.92839547 43.04424771 13.78041178 38.42207702 11.5625 33.8125 C8.61732152 27.60834028 6.04239795 21.27823638 3.5625 14.875 C3.20808838 13.97370361 2.85367676 13.07240723 2.48852539 12.14379883 C2.00113892 10.86218872 2.00113892 10.86218872 1.50390625 9.5546875 C1.21330322 8.79655762 0.9227002 8.03842773 0.62329102 7.25732422 C-0.06854635 4.75175105 -0.10977525 2.58727441 0 0 Z " fill="#FCFDF8" transform="translate(509,474)"/>
<path d="M0 0 C0.02526605 7.67211202 0.04283123 15.3442134 0.05493164 23.01635742 C0.05997377 25.62866619 0.06680725 28.24097211 0.07543945 30.85327148 C0.08751036 34.59880268 0.09322935 38.34429672 0.09765625 42.08984375 C0.10281754 43.26586655 0.10797882 44.44188934 0.11329651 45.65354919 C0.11337204 46.73459427 0.11344757 47.81563934 0.11352539 48.92944336 C0.115746 49.88652695 0.11796661 50.84361053 0.12025452 51.82969666 C0 54 0 54 -1 55 C-6.73611111 55.27314815 -6.73611111 55.27314815 -9 55 C-11 53 -11 53 -11.24723816 50.92617798 C-11.24581314 50.07220428 -11.24438812 49.21823059 -11.24291992 48.33837891 C-11.24599655 47.37042389 -11.24907318 46.40246887 -11.25224304 45.40518188 C-11.24505753 44.35623749 -11.23787201 43.30729309 -11.23046875 42.2265625 C-11.23001053 41.15127289 -11.22955231 40.07598328 -11.2290802 38.96810913 C-11.22605482 36.68999125 -11.21816007 34.41187548 -11.20581055 32.13378906 C-11.18761173 28.64640974 -11.18530045 25.15929674 -11.18554688 21.671875 C-11.18062949 19.4609352 -11.17480021 17.24999721 -11.16796875 15.0390625 C-11.16685593 13.99416656 -11.1657431 12.94927063 -11.16459656 11.87271118 C-11.15821671 10.89845184 -11.15183685 9.9241925 -11.14526367 8.92041016 C-11.14145187 8.06484528 -11.13764008 7.2092804 -11.13371277 6.32778931 C-11.00205053 4.03569746 -10.8290954 2.1447466 -10 0 C-6.30581799 -1.231394 -3.7943739 -0.64432764 0 0 Z " fill="#FCFDF8" transform="translate(803,475)"/>
<path d="M0 0 C2.01703018 2.01703018 1.2806421 6.07562579 1.3515625 8.84765625 C1.37471527 9.65174423 1.39786804 10.45583221 1.42172241 11.2842865 C1.46950737 13.00008514 1.51472299 14.7159569 1.55761719 16.43188477 C1.62339513 18.99984629 1.70172028 21.56719832 1.78125 24.13476562 C2.07075273 34.44233684 2.16777145 44.73658652 1 55 C0 56 0 56 -1.8125 56.1328125 C-2.534375 56.13023437 -3.25625 56.12765625 -4 56.125 C-4.721875 56.12757813 -5.44375 56.13015625 -6.1875 56.1328125 C-8 56 -8 56 -9 55 C-9.09353163 53.31198015 -9.11744791 51.62004793 -9.11352539 49.92944336 C-9.11344986 48.84839828 -9.11337433 47.76735321 -9.11329651 46.65354919 C-9.10813522 45.4775264 -9.10297394 44.3015036 -9.09765625 43.08984375 C-9.0962413 41.89267227 -9.09482635 40.69550079 -9.09336853 39.46205139 C-9.08774979 35.62050934 -9.07519411 31.77902457 -9.0625 27.9375 C-9.05748741 25.34049563 -9.05292409 22.74349035 -9.04882812 20.14648438 C-9.03777427 13.76430321 -9.02101792 7.3821557 -9 1 C-6.01787087 -0.49106457 -3.28390342 -0.11941467 0 0 Z " fill="#FCFDF9" transform="translate(666,474)"/>
<path d="M0 0 C-11.52164009 5.37129841 -11.52164009 5.37129841 -17 7 C-12.55186844 1.85684788 -7.00786241 -2.27872586 0 0 Z " fill="#F2F3EE" transform="translate(787,363)"/>
<path d="M0 0 C0.66 0.33 1.32 0.66 2 1 C2 3.97 2 6.94 2 10 C1.01 10 0.02 10 -1 10 C-1.125 2.25 -1.125 2.25 0 0 Z " fill="#FAF9F5" transform="translate(652,497)"/>
<path d="" fill="#FFFFFF" transform="translate(0,0)"/>
</svg>
