<?xml version="1.0" encoding="UTF-8"?>
<svg version="1.1" xmlns="http://www.w3.org/2000/svg" width="1280" height="698">
<path d="M0 0 C1.85431641 0.66128906 1.85431641 0.66128906 3.74609375 1.3359375 C21.91465435 8.05681821 37.05241645 18.85827684 52 31 C52.92039062 31.69609375 53.84078125 32.3921875 54.7890625 33.109375 C55.88347656 34.04523438 55.88347656 34.04523438 57 35 C57 35.66 57 36.32 57 37 C57.66 37 58.32 37 59 37 C74.85526723 53.98547976 84.00931654 72.25651511 83.27734375 95.70703125 C82.43567954 111.6497578 75.12368562 124.89582961 64 136 C63.40960937 136.66128906 62.81921875 137.32257813 62.2109375 138.00390625 C52.75383765 148.31506138 39.66452802 155.36739191 27.76416016 162.47192383 C27.04019043 162.90529053 26.3162207 163.33865723 25.5703125 163.78515625 C24.92852051 164.16551025 24.28672852 164.54586426 23.62548828 164.93774414 C21.83422981 166.0290363 21.83422981 166.0290363 20 168 C20.44730469 168.59425781 20.89460937 169.18851563 21.35546875 169.80078125 C31.73740124 184.03443284 37.91982091 201.15297263 35.29638672 218.93237305 C32.75740464 233.56001875 25.62369589 246.52482728 13.51171875 255.3671875 C1.08845568 263.44327454 -11.8341194 266.87652738 -26.5625 264.375 C-34.53582527 262.36053796 -41.56787224 256.88994406 -46 250 C-48.5895768 244.90138348 -49.55155087 240.62887015 -49.5 234.875 C-49.49500488 234.13362793 -49.49000977 233.39225586 -49.48486328 232.62841797 C-49.25945443 225.40445285 -47.21013078 219.46238926 -44 213 C-43.51917969 212.02160156 -43.03835938 211.04320312 -42.54296875 210.03515625 C-39.61619352 204.40555429 -36.4011886 198.62655066 -32 194 C-31.34 194 -30.68 194 -30 194 C-29.67 193.01 -29.34 192.02 -29 191 C-28.34 191 -27.68 191 -27 191 C-26.67 190.01 -26.34 189.02 -26 188 C-25.34 188 -24.68 188 -24 188 C-23.66355469 187.14148438 -23.66355469 187.14148438 -23.3203125 186.265625 C-21.6219841 183.35133367 -19.54119931 181.80092255 -16.875 179.75 C-15.96492187 179.04359375 -15.05484375 178.3371875 -14.1171875 177.609375 C-13.06917969 176.81273437 -13.06917969 176.81273437 -12 176 C-12.26676204 174.01508358 -12.26676204 174.01508358 -13 172 C-13.99 171.67 -14.98 171.34 -16 171 C-16 170.34 -16 169.68 -16 169 C-16.57492187 168.75378906 -17.14984375 168.50757813 -17.7421875 168.25390625 C-20.35639827 166.80206947 -22.06336208 165.09712451 -24.125 162.9375 C-26.77905 160.08428067 -26.77905 160.08428067 -30 158 C-30 157.34 -30 156.68 -30 156 C-30.66 156 -31.32 156 -32 156 C-33.38938077 154.03852126 -34.7260411 152.03833424 -36 150 C-35.53625977 149.68248779 -35.07251953 149.36497559 -34.59472656 149.0378418 C-32.47919525 147.58863413 -30.36459062 146.1380799 -28.25 144.6875 C-27.52039063 144.18798828 -26.79078125 143.68847656 -26.0390625 143.17382812 C-25.33007812 142.68720703 -24.62109375 142.20058594 -23.890625 141.69921875 C-23.24125977 141.25408936 -22.59189453 140.80895996 -21.92285156 140.3503418 C-20.55281301 139.38821848 -19.21765644 138.37560506 -17.90917969 137.33129883 C-16 136 -16 136 -13.5625 136 C-10.20915235 137.30862347 -8.37033116 139.4036321 -6 142 C-4.5073559 143.52805354 -3.00670613 145.04831023 -1.5 146.5625 C-0.72785156 147.33851563 0.04429687 148.11453125 0.83984375 148.9140625 C3.07768402 151.14147707 3.07768402 151.14147707 6.0625 153.4375 C6.701875 153.953125 7.34125 154.46875 8 155 C8 155.66 8 156.32 8 157 C8.99 157.33 9.98 157.66 11 158 C11 158.66 11 159.32 11 160 C30.51747684 148.28488482 30.51747684 148.28488482 46.66015625 132.43359375 C47.32337891 131.72396484 47.32337891 131.72396484 48 131 C48.66 131 49.32 131 50 131 C50.40412109 129.93845703 50.40412109 129.93845703 50.81640625 128.85546875 C52.03848854 125.9071448 53.45493109 123.13805754 54.9375 120.3125 C61.60550522 106.89497361 63.32456819 93.9694844 58.8125 79.5625 C55.80947286 70.68890941 51.59668945 63.61302486 46 56.1875 C45.58468018 55.63553955 45.16936035 55.0835791 44.74145508 54.51489258 C42.1263914 51.15105158 39.31984141 48.63808827 36 46 C36 45.34 36 44.68 36 44 C35.13955078 43.61328125 35.13955078 43.61328125 34.26171875 43.21875 C31.79312907 41.88852551 29.93411754 40.33247674 27.8125 38.5 C-2.71577342 13.73517643 -40.87809557 6.19291985 -79.2421875 9.35546875 C-108.15615723 12.63383556 -134.00413089 27.54725713 -155 47 C-155.56847656 47.515625 -156.13695312 48.03125 -156.72265625 48.5625 C-162.23191957 53.7831231 -166.58660631 59.85045512 -171 66 C-171.53625 66.72960937 -172.0725 67.45921875 -172.625 68.2109375 C-193.37839343 97.64917492 -201.14526869 135.57624945 -197 171 C-196.32057786 174.87419306 -195.50620693 178.71567171 -194.6875 182.5625 C-192.96757419 190.69716789 -192.83043051 196.15267276 -195.88671875 204.02734375 C-198.19665156 210.1952696 -198.13480196 216.44700851 -198.0625 222.9375 C-198.05798828 223.71673828 -198.05347656 224.49597656 -198.04882812 225.29882812 C-198.03716908 227.19925268 -198.01923877 229.09963706 -198 231 C-198.99 231 -199.98 231 -201 231 C-218.7206523 195.99856975 -221.2513755 155.98579649 -213 118 C-212.85046875 117.30326172 -212.7009375 116.60652344 -212.546875 115.88867188 C-207.2972694 92.58139516 -194.84425574 70.46393995 -180.234375 51.84765625 C-178.89175184 50.13651589 -177.57873899 48.40058889 -176.328125 46.62109375 C-175.88984375 46.08613281 -175.4515625 45.55117187 -175 45 C-174.34 45 -173.68 45 -173 45 C-172.73058594 44.40574219 -172.46117187 43.81148437 -172.18359375 43.19921875 C-159.56040847 19.74425732 -122.47616958 4.33306477 -98.25 -3.25 C-66.24374376 -12.68711166 -31.31733246 -11.45510984 0 0 Z M-20.8125 197.5 C-30.97024495 207.88893118 -38.12279863 219.65417357 -38.3125 234.375 C-38.34150391 235.1175 -38.37050781 235.86 -38.40039062 236.625 C-38.46089695 241.89370492 -37.51016274 244.84436075 -34 249 C-28.61945383 253.6645864 -22.89979761 254.75056131 -15.921875 254.4140625 C-7.87061309 253.27310827 -1.31060667 249.09157824 4 243 C9.14042759 235.11056114 11.17940823 229.0496753 11.1875 219.6875 C11.20586914 218.58631836 11.20586914 218.58631836 11.22460938 217.46289062 C11.23746021 212.63526036 10.54802246 208.62187352 9 204 C8.60941406 202.77023437 8.60941406 202.77023437 8.2109375 201.515625 C5.63076201 194.522626 1.75729169 188.72616802 -3 183 C-8.09663688 183 -17.03076613 193.8220174 -20.8125 197.5 Z " fill="#030403" transform="translate(695,120)"/>
<path d="M0 0 C4.61847377 3.75835315 8.65768567 8.21528801 9.6875 14.25 C10.8296501 31.92524096 6.75557138 45.61469583 -4.92578125 59.421875 C-10.59556657 65.85369564 -16.81248441 71.66647251 -23.3125 77.25 C-21.93196345 80.44119001 -20.41310526 82.28343562 -17.75 84.5 C-17.04746094 85.09425781 -16.34492187 85.68851562 -15.62109375 86.30078125 C-14.85925781 86.94402344 -14.09742188 87.58726562 -13.3125 88.25 C-11.64172126 89.72452034 -9.9749713 91.20361962 -8.3125 92.6875 C-7.549375 93.36683594 -6.78625 94.04617188 -6 94.74609375 C-5.443125 95.24238281 -4.88625 95.73867188 -4.3125 96.25 C-5.82914147 100.35224108 -8.32118674 101.87580608 -11.9375 104.1875 C-13.00742187 104.87714844 -14.07734375 105.56679688 -15.1796875 106.27734375 C-16.21351563 106.92832031 -17.24734375 107.57929688 -18.3125 108.25 C-19.16070313 108.78753906 -20.00890625 109.32507813 -20.8828125 109.87890625 C-22.68607589 111.01321709 -24.49816395 112.13348551 -26.3125 113.25 C-27.98493402 111.96580959 -29.65031447 110.67242815 -31.3125 109.375 C-32.240625 108.65570313 -33.16875 107.93640625 -34.125 107.1953125 C-35.2078125 106.23238281 -35.2078125 106.23238281 -36.3125 105.25 C-36.3125 104.59 -36.3125 103.93 -36.3125 103.25 C-37.7975 102.755 -37.7975 102.755 -39.3125 102.25 C-39.3125 101.59 -39.3125 100.93 -39.3125 100.25 C-40.17875 99.87875 -40.17875 99.87875 -41.0625 99.5 C-43.6127997 98.08316683 -45.33035701 96.37372463 -47.3125 94.25 C-52.05822345 95.61619312 -55.96747187 97.67389046 -60.0625 100.375 C-60.97721069 100.97223877 -60.97721069 100.97223877 -61.91040039 101.58154297 C-80.2471988 113.72259846 -90.34144097 126.43211698 -96.95703125 147.28125 C-100.14465996 164.93580902 -94.06664379 181.76138876 -84.3125 196.25 C-82.39762334 198.68711575 -80.39868251 200.95519924 -78.3125 203.25 C-78.3125 203.91 -78.3125 204.57 -78.3125 205.25 C-77.6525 205.25 -76.9925 205.25 -76.3125 205.25 C-75.1501381 206.65167171 -73.99152275 208.05661201 -72.8515625 209.4765625 C-69.99843792 212.76417306 -66.65689345 215.47823493 -63.3125 218.25 C-62.65636719 218.80558594 -62.00023437 219.36117187 -61.32421875 219.93359375 C-32.1186382 243.74906716 6.42285274 253.95733963 43.625 250.625 C72.98984313 247.51163344 101.51570144 235.23932343 123.75 215.75 C126.6875 213.25 126.6875 213.25 128.6875 213.25 C128.6875 212.59 128.6875 211.93 128.6875 211.25 C130.92712047 208.86588788 133.2710674 206.63528213 135.671875 204.4140625 C151.43361119 189.37893117 161.22860073 169.60771545 169.37695312 149.68969727 C169.76689453 148.75053467 170.15683594 147.81137207 170.55859375 146.84375 C170.89818115 146.00521484 171.23776855 145.16667969 171.58764648 144.30273438 C172.6875 142.25 172.6875 142.25 175.6875 140.25 C176.6775 140.25 177.6675 140.25 178.6875 140.25 C180.79882376 139.13392627 180.79882376 139.13392627 183.0625 137.625 C190.80587448 132.83364511 199.00625548 129.00512551 207.6875 126.25 C208.51872687 136.84814255 204.99431543 146.62714038 198.609375 155.03125 C190.35730717 164.5580275 180.47503105 169.32082298 168.6875 173.25 C169.13753347 167.62458159 170.37191485 164.63512875 173.6875 160.25 C171.18312949 162.50235839 169.83685893 164.65210898 168.42578125 167.69921875 C168.02939453 168.54677734 167.63300781 169.39433594 167.22460938 170.26757812 C166.61842773 171.58918945 166.61842773 171.58918945 166 172.9375 C165.37641602 174.27651367 165.37641602 174.27651367 164.74023438 175.64257812 C163.71678327 177.84240981 162.69946796 180.04486819 161.6875 182.25 C162.56535156 181.93289063 163.44320313 181.61578125 164.34765625 181.2890625 C170.13614612 179.63520825 176.14786816 179.78152064 182.125 179.625 C183.33349609 179.58632813 184.54199219 179.54765625 185.78710938 179.5078125 C188.75375817 179.41400542 191.72040836 179.32830754 194.6875 179.25 C192.96559579 187.33894538 185.53805008 195.63599206 178.7421875 200.14453125 C173.35618571 203.04232309 168.0640144 204.16915594 162 204.6953125 C161.15864502 204.76911133 160.31729004 204.84291016 159.45043945 204.91894531 C157.7606108 205.05414442 156.06874445 205.1662697 154.37573242 205.25292969 C150.26949566 205.55594828 148.23714489 205.80934318 144.94921875 208.4453125 C144.20285156 209.37085938 143.45648437 210.29640625 142.6875 211.25 C141.83414062 212.19875 140.98078125 213.1475 140.1015625 214.125 C139.65377441 214.62870117 139.20598633 215.13240234 138.74462891 215.65136719 C128.33350848 227.27291791 116.82160673 237.26155772 103.390625 245.23242188 C101.72396204 246.22821477 100.08031753 247.26221588 98.4375 248.296875 C81.47549307 258.6180962 63.04778412 263.57259383 43.6875 267.25 C42.85041504 267.4257959 42.01333008 267.6015918 41.15087891 267.78271484 C6.72855797 274.31238008 -34.74403745 263.16383416 -63.6875 244.3125 C-70.05360939 239.84191756 -76.22740006 235.09437177 -82.3125 230.25 C-82.8787207 229.8070459 -83.44494141 229.3640918 -84.02832031 228.90771484 C-85.49462864 227.73475408 -86.90848378 226.49685023 -88.3125 225.25 C-88.3125 224.59 -88.3125 223.93 -88.3125 223.25 C-89.3025 222.92 -90.2925 222.59 -91.3125 222.25 C-91.3125 221.59 -91.3125 220.93 -91.3125 220.25 C-92.3025 219.92 -93.2925 219.59 -94.3125 219.25 C-96.18067997 217.14133219 -97.91446616 215.04291333 -99.625 212.8125 C-100.11629395 212.17723389 -100.60758789 211.54196777 -101.11376953 210.88745117 C-104.92945029 205.88718014 -108.35484488 200.8092962 -111.3125 195.25 C-111.75078125 194.49589844 -112.1890625 193.74179687 -112.640625 192.96484375 C-120.37113433 178.27221908 -122.03881617 159.68637985 -117.50390625 143.96484375 C-109.16748227 117.97160044 -86.92523874 102.79093038 -64.20727539 90.234375 C-63.32934326 89.74582031 -62.45141113 89.25726563 -61.546875 88.75390625 C-60.75506836 88.31892822 -59.96326172 87.8839502 -59.14746094 87.43579102 C-57.16233367 86.37341199 -57.16233367 86.37341199 -56.3125 84.25 C-57.46615478 82.22588735 -58.71353031 80.25490756 -60 78.3125 C-68.81338475 64.58001679 -71.94108053 48.3532468 -68.59375 32.2421875 C-66.80381168 25.55878879 -64.61707545 19.69142486 -60.3125 14.25 C-59.68601562 13.43917969 -59.05953125 12.62835938 -58.4140625 11.79296875 C-44.81676359 -4.57778643 -18.78278151 -13.10589605 0 0 Z M-41.3125 15.25 C-42.9856351 17.8141538 -44.23244089 20.38944741 -45.3125 23.25 C-45.66699219 24.16394531 -46.02148438 25.07789063 -46.38671875 26.01953125 C-49.53180671 36.99416308 -47.59608887 47.38630293 -42.3125 57.25 C-41.90902344 58.00667969 -41.50554687 58.76335937 -41.08984375 59.54296875 C-40.20349358 61.13458679 -39.26531794 62.69725965 -38.3125 64.25 C-37.6525 64.25 -36.9925 64.25 -36.3125 64.25 C-35.3125 66.25 -34.3125 68.25 -33.3125 70.25 C-19.12487498 63.61848089 -7.99433037 49.67023209 -2.4375 35.3125 C0.0778085 27.75029419 1.34263203 21.3274255 -2 13.875 C-4.50797067 9.47271105 -7.47450712 6.86266429 -12.3125 5.25 C-24.51247469 4.38214954 -32.95813085 5.93023708 -41.3125 15.25 Z " fill="#030403" transform="translate(619.3125,177.75)"/>
<path d="M0 0 C5.56554813 4.53322872 9.21365522 10.22711072 9.9609375 17.421875 C10.04574281 25.05435259 9.55394014 30.61587988 5.625 37.1875 C5.150625 38.03570312 4.67625 38.88390625 4.1875 39.7578125 C-10.85467018 65.14147467 -37.8352571 80.43057295 -62.29980469 95.31347656 C-66.50449469 97.87581385 -70.69452643 100.46087978 -74.875 103.0625 C-75.52065918 103.46082031 -76.16631836 103.85914063 -76.83154297 104.26953125 C-79.2455022 105.77315562 -81.35622098 107.16872098 -83.375 109.1875 C-82.68664062 110.13109375 -82.68664062 110.13109375 -81.984375 111.09375 C-70.71047264 126.82037011 -66.45912788 142.69230834 -68.6953125 161.9453125 C-71.45708616 176.35674959 -80.71173635 188.75943999 -92.375 197.3125 C-106.20099975 206.11963771 -122.62740402 209.26641077 -138.66796875 206.0078125 C-147.59475837 203.30272474 -153.6333541 198.08329625 -158.125 190.0625 C-161.91081554 180.26264607 -160.72441207 169.97821801 -156.87890625 160.5 C-144.84812598 133.67116375 -118.69770842 116.06997908 -94.375 101.1875 C-93.29814941 100.52717773 -92.22129883 99.86685547 -91.11181641 99.18652344 C-87.32810132 96.86850197 -83.54009198 94.5575781 -79.75 92.25 C-79.12046417 91.86661469 -78.49092834 91.48322937 -77.84231567 91.08822632 C-76.02889635 89.98519918 -74.21396893 88.88470278 -72.3984375 87.78515625 C-71.33544434 87.14070557 -70.27245117 86.49625488 -69.17724609 85.83227539 C-66.94000746 84.51913053 -64.71419675 83.30433454 -62.375 82.1875 C-63.61767841 79.6746503 -64.90662415 77.21285573 -66.25 74.75 C-74.11312165 58.81760745 -75.0619792 42.39557188 -69.75 25.5625 C-64.65741665 12.44294511 -53.69947711 4.0381647 -41.375 -1.8125 C-27.97413995 -7.14802761 -12.3328234 -8.65341753 0 0 Z M-42.45703125 14.265625 C-50.49006598 23.93908998 -51.46810133 34.00371889 -50.375 46.1875 C-49.51126143 49.85716893 -48.22044991 52.90984509 -46.375 56.1875 C-45.89289063 57.04730469 -45.41078125 57.90710938 -44.9140625 58.79296875 C-42.88074891 62.1720204 -42.88074891 62.1720204 -40.375 65.1875 C-36.21998909 65.1875 -35.8091782 65.13828133 -32.8125 62.75 C-31.77222656 61.92435547 -31.77222656 61.92435547 -30.7109375 61.08203125 C-29.94007813 60.45683594 -29.16921875 59.83164063 -28.375 59.1875 C-27.50101563 58.51074219 -26.62703125 57.83398438 -25.7265625 57.13671875 C-14.55184935 48.32528527 -2.82326762 37.40152827 -0.5 22.6875 C-0.13719012 18.14851684 -1.01263004 15.1501851 -3.375 11.1875 C-7.75119655 6.60775942 -11.31985952 5.26179912 -17.375 4.1875 C-27.1015771 4.1875 -35.48683549 7.30850653 -42.45703125 14.265625 Z M-111.7890625 126.56640625 C-112.46364502 127.07155762 -113.13822754 127.57670898 -113.83325195 128.09716797 C-114.90579224 128.91531982 -114.90579224 128.91531982 -116 129.75 C-117.09477661 130.58362061 -117.09477661 130.58362061 -118.21166992 131.43408203 C-120.27171913 133.01143321 -122.32397198 134.59844902 -124.375 136.1875 C-125.58736328 137.10982422 -125.58736328 137.10982422 -126.82421875 138.05078125 C-137.40462403 146.63488365 -145.09774032 158.35572097 -149.375 171.1875 C-149.88248917 177.40424229 -150.1469833 182.95539413 -146.375 188.1875 C-140.89145373 193.68429155 -136.67871598 196.47459849 -128.75 196.5625 C-118.86507325 196.41864452 -110.53891027 193.19003807 -103.375 186.25 C-95.04381083 177.42874088 -91.96428321 168.62224985 -92.09765625 156.57421875 C-93.08531638 144.51363655 -98.10280691 133.05056403 -106.375 124.1875 C-108.96492491 124.1875 -109.73227948 125.01878452 -111.7890625 126.56640625 Z " fill="#040403" transform="translate(710.375,177.8125)"/>
<path d="M0 0 C3.42649234 2.28432823 3.5675942 2.97968716 4.75 6.75 C6.33650614 11.41763582 8.29895632 15.75452858 10.5625 20.125 C17.29099236 33.32510441 20.10293935 46.35645495 16 61 C10.34198831 77.34495103 10.34198831 77.34495103 6 81 C5.34 81 4.68 81 4 81 C4.165 80.01 4.33 79.02 4.5 78 C5.39377749 71.05119475 5.07635992 63.99117499 5 57 C4.93006836 57.648479 4.86013672 58.29695801 4.78808594 58.96508789 C3.39211703 71.63990208 1.77121522 83.80080582 -2 96 C-2.67554117 98.33087932 -3.3375814 100.66534244 -4 103 C-4.66 103 -5.32 103 -6 103 C-6.20625 103.763125 -6.4125 104.52625 -6.625 105.3125 C-10.41572956 115.47854745 -16.70299014 124.25615203 -23 133 C-23.54269531 133.78503906 -24.08539062 134.57007813 -24.64453125 135.37890625 C-25.09183594 135.91386719 -25.53914062 136.44882812 -26 137 C-26.66 137 -27.32 137 -28 137 C-28.268125 137.58265625 -28.53625 138.1653125 -28.8125 138.765625 C-30.01480991 141.02786601 -31.33825913 142.80576318 -33 144.75 C-33.515625 145.36359375 -34.03125 145.9771875 -34.5625 146.609375 C-36 148 -36 148 -38 148 C-38 148.66 -38 149.32 -38 150 C-66.97227722 177.92878419 -105.41306805 190.61053758 -144.98046875 190.203125 C-165.67911098 189.75380967 -188.82412869 183.86096009 -206 172 C-206.90234375 171.50113281 -207.8046875 171.00226563 -208.734375 170.48828125 C-211 169 -211 169 -212 166 C-206.19335236 167.55754784 -200.71707027 169.51214398 -195.1875 171.875 C-188.96834412 174.47098399 -182.67819413 176.25691757 -176.125 177.8125 C-174.82405396 178.1226001 -174.82405396 178.1226001 -173.49682617 178.43896484 C-163.37460662 180.74215479 -153.6199898 181.1819367 -143.25 181.1875 C-142.0640625 181.19974609 -140.878125 181.21199219 -139.65625 181.22460938 C-107.36643446 181.27748571 -76.408823 168.85763144 -52 148 C-51.31035156 147.443125 -50.62070312 146.88625 -49.91015625 146.3125 C-49.27980469 145.796875 -48.64945313 145.28125 -48 144.75 C-47.46375 144.31171875 -46.9275 143.8734375 -46.375 143.421875 C-43.85374483 140.81466795 -43.05299535 138.51935439 -42.6875 134.9375 C-42.95682073 131.54405884 -43.52207673 129.02898696 -44.5 125.8125 C-47.32811302 115.85971764 -46.60481158 108.05549325 -42.484375 98.59375 C-40.95061275 95.91370228 -39.27964825 94.06532235 -37 92 C-29.03439634 101.60077157 -28.25285363 113.14527763 -29 125 C-28.01941648 123.54261898 -27.04057868 122.08406325 -26.0625 120.625 C-25.51722656 119.81289063 -24.97195313 119.00078125 -24.41015625 118.1640625 C-21.83195117 114.20748185 -21.63283657 111.77312457 -22 107 C-22.9943819 104.27037943 -24.34842082 101.78989877 -25.75 99.25 C-26.48772373 97.82464489 -27.22210783 96.39755628 -27.953125 94.96875 C-28.30697266 94.28296875 -28.66082031 93.5971875 -29.02539062 92.890625 C-35.34887817 80.6238195 -36.32840594 66.6398694 -32.34936523 53.35058594 C-29.71039965 45.47359977 -29.71039965 45.47359977 -26 43 C-25.5153125 43.99257813 -25.030625 44.98515625 -24.53125 46.0078125 C-21.12126248 52.93421555 -17.63481952 59.73801257 -13.6875 66.375 C-10.5372059 71.7719675 -8.34932363 76.89993276 -7 83 C-5.42412651 73.07199703 -7.46001784 65.94146399 -11.09765625 56.67578125 C-16.16673718 41.64409105 -13.35550393 24.35828356 -6.5 10.5 C-4.57436771 6.75008448 -2.643609 3.28839168 0 0 Z M4 46 C5 49 5 49 5 49 Z " fill="#040404" transform="translate(786,236)"/>
<path d="M0 0 C2.3515625 0.21484375 2.3515625 0.21484375 5 1 C6.3359375 2.94140625 6.3359375 2.94140625 7.375 5.5625 C7.79394531 6.57441406 8.21289062 7.58632813 8.64453125 8.62890625 C9.09183594 9.74136719 9.53914063 10.85382813 10 12 C11.01380451 14.33639585 12.03527711 16.66947253 13.0625 19 C13.47894775 19.95942505 13.47894775 19.95942505 13.90380859 20.93823242 C15.94306676 25.63267236 18.03736658 30.3000965 20.15234375 34.9609375 C20.98906915 36.81367895 21.82500542 38.66677414 22.66061401 40.52001953 C23.21975138 41.75567143 23.78170043 42.99005492 24.34646606 44.22314453 C25.14429873 45.9658555 25.93174479 47.71331017 26.71875 49.4609375 C27.18216797 50.47978027 27.64558594 51.49862305 28.12304688 52.54833984 C28.55713867 53.76191162 28.55713867 53.76191162 29 55 C28.505 55.99 28.505 55.99 28 57 C24.7 57 21.4 57 18 57 C14.97337567 52.05651359 13.67627984 48.86697945 12 43 C4.74 43 -2.52 43 -10 43 C-11.98 47.62 -13.96 52.24 -16 57 C-18.7496334 57.27616405 -21.49633658 57.52164742 -24.25 57.75 C-25.02730469 57.83121094 -25.80460937 57.91242187 -26.60546875 57.99609375 C-32.36100576 58.43882737 -32.36100576 58.43882737 -35.26953125 56.44140625 C-37.41842017 53.40967809 -39.47878786 50.34418196 -41.4375 47.1875 C-42.23222366 45.93695989 -43.02778814 44.6869537 -43.82421875 43.4375 C-45.06343915 41.4835689 -46.29548318 39.52601155 -47.51953125 37.5625 C-48.83056389 35.4857066 -48.83056389 35.4857066 -51 33 C-52.65 32.67 -54.3 32.34 -56 32 C-56 40.25 -56 48.5 -56 57 C-59.3 57 -62.6 57 -66 57 C-66 38.52 -66 20.04 -66 1 C-41 1 -41 1 -33 5 C-29.04849143 9.25547076 -27.626746 12.02375497 -27.72265625 17.90625 C-28.36980502 22.79176744 -31.33177302 25.48178316 -35.0625 28.375 C-38 30 -38 30 -41 30 C-39.29529214 32.35686479 -37.58636767 34.71047785 -35.875 37.0625 C-35.400625 37.71927734 -34.92625 38.37605469 -34.4375 39.05273438 C-31.50745236 43.07165107 -28.45054063 46.86938386 -25.10595703 50.55249023 C-24 52 -24 52 -24 54 C-23.34 54 -22.68 54 -22 54 C-21.89816406 53.32195313 -21.79632813 52.64390625 -21.69140625 51.9453125 C-20.85447776 48.3800917 -19.44627461 45.19306575 -17.9375 41.875 C-17.30084086 40.44847053 -16.66547881 39.02136164 -16.03125 37.59375 C-15.69867188 36.84609375 -15.36609375 36.0984375 -15.0234375 35.328125 C-13.28070197 31.36373424 -11.60993755 27.3694397 -9.9375 23.375 C-6.66330073 15.56656207 -3.34913939 7.77660018 0 0 Z M-56 8 C-56 13.94 -56 19.88 -56 26 C-47.92716756 26.58171243 -47.92716756 26.58171243 -41 23 C-38.54589642 19.31884463 -38.76712157 17.34706402 -39 13 C-39.7242892 9.67633949 -39.7242892 9.67633949 -43.1875 8.3125 C-47.69088327 6.54628603 -51.39347716 6.46449239 -56 8 Z M0 16 C-1.33620809 19.14462004 -2.66848288 22.29089113 -4 25.4375 C-4.57234375 26.78424805 -4.57234375 26.78424805 -5.15625 28.15820312 C-5.5171875 29.01220703 -5.878125 29.86621094 -6.25 30.74609375 C-6.75273437 31.93223267 -6.75273437 31.93223267 -7.265625 33.14233398 C-8.06127279 34.82206892 -8.06127279 34.82206892 -8 36 C-2.39 36 3.22 36 9 36 C8.071875 33.4425 7.14375 30.885 6.1875 28.25 C5.90156982 27.45110352 5.61563965 26.65220703 5.32104492 25.82910156 C5.08490479 25.1894043 4.84876465 24.54970703 4.60546875 23.890625 C4.36981201 23.24125977 4.13415527 22.59189453 3.89135742 21.92285156 C2.85926815 19.69641082 1.52543256 17.91470656 0 16 Z " fill="#050606" transform="translate(488,480)"/>
<path d="M0 0 C1.24265625 0.43054688 2.4853125 0.86109375 3.765625 1.3046875 C10.90024532 3.94658666 17.29164429 7.12951453 23.75 11.125 C24.42998047 11.54483154 25.10996094 11.96466309 25.81054688 12.3972168 C29.20932039 14.58010928 31.83409626 16.49252902 34 20 C29.32177627 19.37563358 25.47974689 17.39660376 21.3125 15.3125 C-12.01367583 -0.83100187 -48.76573343 -4.69520154 -84.04345703 7.30419922 C-117.18989293 19.09198838 -144.00156332 42.85458404 -160 74 C-160.73669922 75.32837891 -160.73669922 75.32837891 -161.48828125 76.68359375 C-169.04570274 90.76344102 -172.82545139 106.26189999 -175 122 C-175.09716309 122.69013184 -175.19432617 123.38026367 -175.29443359 124.09130859 C-176.07489711 130.20017227 -176.08256035 136.22425417 -176 142.375 C-175.97450515 144.32025699 -175.95346738 146.26557897 -175.9375 148.2109375 C-175.92589844 149.05962402 -175.91429687 149.90831055 -175.90234375 150.78271484 C-176 153 -176 153 -177 156 C-177.66 156 -178.32 156 -179 156 C-180.14550417 148.92015574 -180.18607547 141.92818269 -180.18530273 134.76953125 C-180.18746742 132.53365395 -180.20559924 130.29828889 -180.22460938 128.0625 C-180.27683571 115.19613697 -179.28624939 102.61088914 -175.4375 90.25 C-175.18137939 89.41710449 -174.92525879 88.58420898 -174.66137695 87.72607422 C-169.94632954 73.05181884 -162.82713792 59.59141089 -154 47 C-153.46246094 46.21882813 -152.92492187 45.43765625 -152.37109375 44.6328125 C-130.81732221 15.13817776 -97.94517801 -1.61372487 -62.5390625 -7.40234375 C-41.24272321 -10.12976966 -20.09408184 -7.20295549 0 0 Z " fill="#050504" transform="translate(681,139)"/>
<path d="M0 0 C1.00869141 -0.020625 2.01738281 -0.04125 3.05664062 -0.0625 C12.53917296 -0.11134756 20.81309011 1.40931882 28.30859375 7.51171875 C34.15861267 13.30962169 37.08230047 20.33041083 37.4375 28.5 C37.23738121 37.17573829 34.0444089 44.24370711 28.125 50.55859375 C18.43966661 58.50130087 5.12239995 57.87584224 -6.625 56.8125 C-10.79388298 56.39361702 -10.79388298 56.39361702 -11.9375 55.25 C-12.0362517 53.56744765 -12.06548904 51.88075972 -12.06689453 50.1953125 C-12.07004669 49.11749512 -12.07319885 48.03967773 -12.07644653 46.92919922 C-12.0744223 45.75631348 -12.07239807 44.58342773 -12.0703125 43.375 C-12.07126923 42.1802002 -12.07222595 40.98540039 -12.07321167 39.75439453 C-12.07389371 37.2223302 -12.07203778 34.69026412 -12.06787109 32.15820312 C-12.06252321 28.2668874 -12.06781533 24.37568711 -12.07421875 20.484375 C-12.07355797 18.03124974 -12.07227682 15.57812456 -12.0703125 13.125 C-12.07233673 11.95211426 -12.07436096 10.77922852 -12.07644653 9.57080078 C-12.07329437 8.4929834 -12.07014221 7.41516602 -12.06689453 6.3046875 C-12.06609894 5.35062012 -12.06530334 4.39655273 -12.06448364 3.41357422 C-11.74773138 -1.98331804 -4.11612889 0.02033912 0 0 Z M-1.9375 8.25 C-1.96214638 14.07071622 -1.9803343 19.89140234 -1.99243164 25.7121582 C-1.99747267 27.69393441 -2.00430538 29.67570689 -2.01293945 31.6574707 C-2.02501515 34.49952109 -2.03073045 37.34152247 -2.03515625 40.18359375 C-2.04031754 41.07525742 -2.04547882 41.96692108 -2.05079651 42.88560486 C-2.05099177 45.00740601 -1.9996003 47.1291078 -1.9375 49.25 C-0.02348477 51.16401523 3.20100348 50.51189296 5.75 50.5625 C11.41133915 50.51082449 14.85582771 50.3488089 19.0625 46.25 C23.93154978 41.15962977 26.10795756 36.88960258 26.3125 29.875 C26.12075094 22.74433195 24.74687261 16.82060527 20.0625 11.25 C17.79421336 9.66169191 15.55559286 8.49654643 13.0625 7.25 C12.4025 6.92 11.7425 6.59 11.0625 6.25 C8.98685324 6.05241769 8.98685324 6.05241769 6.6875 6.0625 C5.53121094 6.04123047 5.53121094 6.04123047 4.3515625 6.01953125 C1.83324107 6.27308238 0.27811234 7.0740301 -1.9375 8.25 Z " fill="#050606" transform="translate(876.9375,480.75)"/>
<path d="M0 0 C0.721875 0.00257813 1.44375 0.00515625 2.1875 0.0078125 C2.909375 0.00523437 3.63125 0.00265625 4.375 0 C6.1875 0.1328125 6.1875 0.1328125 7.1875 1.1328125 C7.27450342 2.76754132 7.29451063 4.40595305 7.28515625 6.04296875 C7.28265869 6.9337915 7.28016113 7.82461426 7.27758789 8.74243164 C7.26393188 10.45160767 7.26393188 10.45160767 7.25 12.1953125 C7.229375 15.8046875 7.20875 19.4140625 7.1875 23.1328125 C14.4475 23.1328125 21.7075 23.1328125 29.1875 23.1328125 C29.10841458 16.31160839 29.10841458 16.31160839 29.00732422 9.49072266 C29.0023291 8.64300293 28.99733398 7.7952832 28.9921875 6.921875 C28.98171387 6.05256348 28.97124023 5.18325195 28.96044922 4.28759766 C29.1875 2.1328125 29.1875 2.1328125 31.1875 0.1328125 C33.90204956 -0.19470984 36.43980759 0.00197 39.1875 0.1328125 C40.86762342 1.81293592 40.31497339 3.88368442 40.31689453 6.1875 C40.32004669 7.26531738 40.32319885 8.34313477 40.32644653 9.45361328 C40.3244223 10.62649902 40.32239807 11.79938477 40.3203125 13.0078125 C40.32126923 14.2026123 40.32222595 15.39741211 40.32321167 16.62841797 C40.32389371 19.1604823 40.32203778 21.69254838 40.31787109 24.22460938 C40.31252321 28.1159251 40.31781533 32.00712539 40.32421875 35.8984375 C40.32355797 38.35156276 40.32227682 40.80468794 40.3203125 43.2578125 C40.32233673 44.43069824 40.32436096 45.60358398 40.32644653 46.81201172 C40.32171829 48.42873779 40.32171829 48.42873779 40.31689453 50.078125 C40.31609894 51.03219238 40.31530334 51.98625977 40.31448364 52.96923828 C40.1875 55.1328125 40.1875 55.1328125 39.1875 56.1328125 C37.69011876 56.2307182 36.18807108 56.26256114 34.6875 56.2578125 C33.8728125 56.26039063 33.058125 56.26296875 32.21875 56.265625 C30.1875 56.1328125 30.1875 56.1328125 29.1875 55.1328125 C29.10012355 53.27911639 29.08051847 51.42213709 29.08984375 49.56640625 C29.09306641 48.44169922 29.09628906 47.31699219 29.09960938 46.15820312 C29.10798828 44.97419922 29.11636719 43.79019531 29.125 42.5703125 C29.12951172 41.38244141 29.13402344 40.19457031 29.13867188 38.97070312 C29.15050314 36.02471838 29.16843924 33.07875934 29.1875 30.1328125 C21.9275 30.1328125 14.6675 30.1328125 7.1875 30.1328125 C7.1875 38.7128125 7.1875 47.2928125 7.1875 56.1328125 C3.8875 56.1328125 0.5875 56.1328125 -2.8125 56.1328125 C-2.83776563 48.31828498 -2.85533105 40.50376792 -2.86743164 32.68920898 C-2.87247383 30.02839769 -2.87930736 27.36758918 -2.88793945 24.70678711 C-2.90001009 20.89175734 -2.90572929 17.07676406 -2.91015625 13.26171875 C-2.91531754 12.06382217 -2.92047882 10.8659256 -2.92579651 9.63172913 C-2.92587204 8.5306633 -2.92594757 7.42959747 -2.92602539 6.29516602 C-2.928246 5.32031754 -2.93046661 4.34546906 -2.93275452 3.34107971 C-2.78490095 0.62600336 -2.71547981 0.19897912 0 0 Z " fill="#060806" transform="translate(742.8125,480.8671875)"/>
<path d="M0 0 C2.97 0 5.94 0 9 0 C10 1 10 1 10.11352539 3.13305664 C10.10828857 4.04949951 10.10305176 4.96594238 10.09765625 5.91015625 C10.09515869 6.800979 10.09266113 7.69180176 10.09008789 8.60961914 C10.07643188 10.31879517 10.07643188 10.31879517 10.0625 12.0625 C10.041875 15.671875 10.02125 19.28125 10 23 C17.26 23 24.52 23 32 23 C31.9604134 15.80477218 31.9604134 15.80477218 31.90991211 8.60961914 C31.90741455 7.71879639 31.90491699 6.82797363 31.90234375 5.91015625 C31.89448853 4.53549194 31.89448853 4.53549194 31.88647461 3.13305664 C32 1 32 1 33 0 C34.8125 -0.1328125 34.8125 -0.1328125 37 -0.125 C37.721875 -0.12757813 38.44375 -0.13015625 39.1875 -0.1328125 C41 0 41 0 42 1 C42.0935919 2.71865409 42.11744611 4.44115744 42.11352539 6.16235352 C42.11344986 7.26341934 42.11337433 8.36448517 42.11329651 9.49891663 C42.10813522 10.6968132 42.10297394 11.89470978 42.09765625 13.12890625 C42.0962413 14.34827377 42.09482635 15.5676413 42.09336853 16.82395935 C42.08774967 20.7368307 42.07519396 24.64964581 42.0625 28.5625 C42.05748743 31.20768147 42.0529241 33.85286383 42.04882812 36.49804688 C42.03777411 42.99871726 42.02101764 49.49935461 42 56 C38.7 56 35.4 56 32 56 C32 47.09 32 38.18 32 29 C31.34 29.33 30.68 29.66 30 30 C28.55151418 30.08342159 27.09929131 30.10732861 25.6484375 30.09765625 C24.88192871 30.09515869 24.11541992 30.09266113 23.32568359 30.09008789 C22.35195801 30.08098389 21.37823242 30.07187988 20.375 30.0625 C17.28125 30.041875 14.1875 30.02125 11 30 C10.67 38.58 10.34 47.16 10 56 C6.7 56 3.4 56 0 56 C0 37.52 0 19.04 0 0 Z " fill="#050605" transform="translate(370,481)"/>
<path d="M0 0 C2.05078125 0.03255208 4.1015625 0.06510417 6.15234375 0.09765625 C6.15234375 0.75765625 6.15234375 1.41765625 6.15234375 2.09765625 C6.81234375 2.09765625 7.47234375 2.09765625 8.15234375 2.09765625 C9.57633065 3.81284702 10.91866535 5.59644745 12.21484375 7.41015625 C12.92769531 8.39628906 13.64054688 9.38242187 14.375 10.3984375 C16.15234375 13.09765625 16.15234375 13.09765625 17.15234375 16.09765625 C17.81234375 16.09765625 18.47234375 16.09765625 19.15234375 16.09765625 C20.44921875 17.53466797 20.44921875 17.53466797 21.90234375 19.52734375 C22.42828125 20.24019531 22.95421875 20.95304687 23.49609375 21.6875 C24.04265625 22.44160156 24.58921875 23.19570313 25.15234375 23.97265625 C26.2343425 25.45019699 27.31762094 26.92680169 28.40234375 28.40234375 C28.881875 29.06218262 29.36140625 29.72202148 29.85546875 30.40185547 C31.18711488 32.22051534 31.18711488 32.22051534 33.15234375 34.09765625 C33.18992798 32.60600952 33.18992798 32.60600952 33.22827148 31.08422852 C33.32219257 27.40716878 33.42244994 23.73030475 33.5246582 20.0534668 C33.56806521 18.45976325 33.60973594 16.86601145 33.6496582 15.2722168 C33.70722182 12.98601717 33.77095524 10.70006176 33.8359375 8.4140625 C33.85264999 7.69738907 33.86936249 6.98071564 33.88658142 6.24232483 C34.03847204 1.21152796 34.03847204 1.21152796 35.15234375 0.09765625 C37.65234375 -0.02734375 37.65234375 -0.02734375 40.15234375 0.09765625 C41.83024165 1.77555415 41.27981303 3.83503105 41.28173828 6.13647461 C41.28489044 7.2110643 41.2880426 8.28565399 41.29129028 9.39280701 C41.28926605 10.56255569 41.28724182 11.73230438 41.28515625 12.9375 C41.28611298 14.12992813 41.2870697 15.32235626 41.28805542 16.55091858 C41.28873751 19.07878675 41.28688121 21.60665666 41.28271484 24.13452148 C41.27737171 28.01485108 41.28265648 31.89506468 41.2890625 35.77539062 C41.28840163 38.22526067 41.28712029 40.67513065 41.28515625 43.125 C41.28718048 44.29272446 41.28920471 45.46044891 41.29129028 46.66355896 C41.28656204 48.28017174 41.28656204 48.28017174 41.28173828 49.92944336 C41.28094269 50.88129013 41.28014709 51.8331369 41.27932739 52.81382751 C41.15234375 55.09765625 41.15234375 55.09765625 40.15234375 57.09765625 C36.86086719 56.85098822 35.95467217 55.89423313 33.6015625 53.47265625 C32.67107787 52.35584031 31.75097547 51.23031617 30.83984375 50.09765625 C30.35563965 49.51040771 29.87143555 48.92315918 29.37255859 48.31811523 C26.06025628 44.28169488 22.82324743 40.18659385 19.65625 36.03515625 C18.22657127 34.19328443 16.73787996 32.42501158 15.21484375 30.66015625 C13.15234375 28.09765625 13.15234375 28.09765625 13.15234375 26.09765625 C12.49234375 26.09765625 11.83234375 26.09765625 11.15234375 26.09765625 C9.42578125 23.91015625 9.42578125 23.91015625 7.52734375 21.09765625 C6.89570312 20.16953125 6.2640625 19.24140625 5.61328125 18.28515625 C4.89011719 17.20234375 4.89011719 17.20234375 4.15234375 16.09765625 C4.15758057 17.27384521 4.16281738 18.45003418 4.16821289 19.66186523 C4.18626038 24.00967656 4.19777483 28.35748455 4.20727539 32.70532227 C4.21231619 34.59009355 4.21914873 36.4748609 4.2277832 38.35961914 C4.23985992 41.06267261 4.24557443 43.76567456 4.25 46.46875 C4.25516129 47.31666611 4.26032257 48.16458221 4.26564026 49.03819275 C4.2658357 51.05836693 4.21440586 53.07843559 4.15234375 55.09765625 C3.15234375 56.09765625 3.15234375 56.09765625 0.65234375 56.22265625 C-1.84765625 56.09765625 -1.84765625 56.09765625 -2.84765625 55.09765625 C-2.94640795 53.4151039 -2.97564529 51.72841597 -2.97705078 50.04296875 C-2.98020294 48.96515137 -2.9833551 47.88733398 -2.98660278 46.77685547 C-2.98457855 45.60396973 -2.98255432 44.43108398 -2.98046875 43.22265625 C-2.98142548 42.02785645 -2.9823822 40.83305664 -2.98336792 39.60205078 C-2.98404996 37.06998645 -2.98219403 34.53792037 -2.97802734 32.00585938 C-2.97267946 28.11454365 -2.97797158 24.22334336 -2.984375 20.33203125 C-2.98371422 17.87890599 -2.98243307 15.42578081 -2.98046875 12.97265625 C-2.98249298 11.79977051 -2.98451721 10.62688477 -2.98660278 9.41845703 C-2.98345062 8.34063965 -2.98029846 7.26282227 -2.97705078 6.15234375 C-2.97625519 5.19827637 -2.97545959 4.24420898 -2.97463989 3.26123047 C-2.81565312 0.5523801 -2.71852635 0.14368533 0 0 Z " fill="#080908" transform="translate(814.84765625,480.90234375)"/>
<path d="M0 0 C4.43379954 0.52505521 5.63889091 2.23420694 8.515625 5.57421875 C9.36640625 6.53714844 10.2171875 7.50007813 11.09375 8.4921875 C13.06421281 11.11828992 14.24657737 13.28994622 15.265625 16.38671875 C15.925625 16.38671875 16.585625 16.38671875 17.265625 16.38671875 C18.74887237 18.1666156 20.15233482 20.01335401 21.515625 21.88671875 C22.26328125 22.90765625 23.0109375 23.92859375 23.78125 24.98046875 C25.01101563 26.6665625 25.01101563 26.6665625 26.265625 28.38671875 C28.245625 31.02671875 30.225625 33.66671875 32.265625 36.38671875 C32.595625 24.83671875 32.925625 13.28671875 33.265625 1.38671875 C34.915625 1.05671875 36.565625 0.72671875 38.265625 0.38671875 C39.265625 1.38671875 39.265625 1.38671875 39.38587952 3.59498596 C39.38365891 4.56983444 39.38143829 5.54468292 39.37915039 6.54907227 C39.37907486 7.65013809 39.37899933 8.75120392 39.37892151 9.88563538 C39.37376022 11.08353195 39.36859894 12.28142853 39.36328125 13.515625 C39.3618663 14.73499252 39.36045135 15.95436005 39.35899353 17.2106781 C39.35337467 21.12354945 39.34081896 25.03636456 39.328125 28.94921875 C39.32311243 31.59440022 39.3185491 34.23958258 39.31445312 36.88476562 C39.30339911 43.38543601 39.28664264 49.88607336 39.265625 56.38671875 C37.285625 56.88171875 37.285625 56.88171875 35.265625 57.38671875 C28.3819755 49.57548527 21.79042714 41.64200864 15.62792969 33.24609375 C11.64285775 27.82345866 7.48507961 22.66103701 3.265625 17.38671875 C2.935625 30.25671875 2.605625 43.12671875 2.265625 56.38671875 C0.285625 56.38671875 -1.694375 56.38671875 -3.734375 56.38671875 C-3.75964063 48.57219123 -3.77720605 40.75767417 -3.78930664 32.94311523 C-3.79434883 30.28230394 -3.80118236 27.62149543 -3.80981445 24.96069336 C-3.82188509 21.14566359 -3.82760429 17.33067031 -3.83203125 13.515625 C-3.83719254 12.31772842 -3.84235382 11.11983185 -3.84767151 9.88563538 C-3.84774704 8.78456955 -3.84782257 7.68350372 -3.84790039 6.54907227 C-3.850121 5.57422379 -3.85234161 4.59937531 -3.85462952 3.59498596 C-3.67594449 0.31374304 -3.29341849 0.46578347 0 0 Z " fill="#040504" transform="translate(608.734375,480.61328125)"/>
<path d="M0 0 C1.32 0 2.64 0 4 0 C4.39155273 0.90371338 4.39155273 0.90371338 4.79101562 1.82568359 C9.2470626 12.10541717 13.70554375 22.38397184 18.25 32.625 C18.57025146 33.34945312 18.89050293 34.07390625 19.22045898 34.8203125 C20.71856621 38.1925013 22.24794917 41.54158029 23.86328125 44.859375 C24.42402344 46.01953125 24.98476563 47.1796875 25.5625 48.375 C26.05878906 49.37273438 26.55507813 50.37046875 27.06640625 51.3984375 C28.06161318 54.17169196 28.06731246 55.30295893 27 58 C23.45215256 58.23422682 20.38228471 58.15845837 17 57 C13.91342917 53.12448506 12.54933578 48.64800734 11 44 C3.74 43.67 -3.52 43.34 -11 43 C-11.804375 45.124375 -12.60875 47.24875 -13.4375 49.4375 C-15.875 55.875 -15.875 55.875 -17 57 C-19.33297433 57.04092937 -21.66705225 57.04241723 -24 57 C-23.37441965 53.31662604 -22.34467284 50.12146594 -20.890625 46.68359375 C-20.46523438 45.67103516 -20.03984375 44.65847656 -19.6015625 43.61523438 C-18.93253906 42.04225586 -18.93253906 42.04225586 -18.25 40.4375 C-17.81945312 39.41591797 -17.38890625 38.39433594 -16.9453125 37.34179688 C-16.07160441 35.26870209 -15.19552439 33.19660545 -14.31713867 31.12548828 C-13.00608618 28.01444213 -11.72367004 24.89253178 -10.44140625 21.76953125 C-8.38267581 16.82120532 -6.13177577 12.01796108 -3.6875 7.25 C-3.32849609 6.54101562 -2.96949219 5.83203125 -2.59960938 5.1015625 C-1.73687886 3.39910762 -0.86903127 1.69924724 0 0 Z M-1 16 C-2.17314026 18.76825188 -3.33870215 21.53928486 -4.5 24.3125 C-4.83386719 25.09818359 -5.16773438 25.88386719 -5.51171875 26.69335938 C-5.82753906 27.45068359 -6.14335938 28.20800781 -6.46875 28.98828125 C-6.90864258 30.03302612 -6.90864258 30.03302612 -7.35742188 31.09887695 C-8.1601016 33.13921072 -8.1601016 33.13921072 -8 36 C-2.72 36 2.56 36 8 36 C6.54258299 30.89904045 5.11007654 26.77559618 2.875 22.0625 C2.33617187 20.91910156 1.79734375 19.77570313 1.2421875 18.59765625 C0.83226562 17.74042969 0.42234375 16.88320313 0 16 C-0.33 16 -0.66 16 -1 16 Z " fill="#060706" transform="translate(573,480)"/>
<path d="M0 0 C11.22 0 22.44 0 34 0 C35.125 5.625 35.125 5.625 33 9 C32.17757812 8.855625 31.35515625 8.71125 30.5078125 8.5625 C23.56290565 7.4076887 17.03708629 6.78993772 10 7 C10 12.28 10 17.56 10 23 C11.82337891 22.98259766 11.82337891 22.98259766 13.68359375 22.96484375 C15.26822764 22.95546722 16.85286318 22.94636687 18.4375 22.9375 C19.23994141 22.92912109 20.04238281 22.92074219 20.86914062 22.91210938 C22.91295221 22.9034857 24.95683902 22.9477185 27 23 C28 24 28 24 28.125 26.5 C28 29 28 29 27 30 C24.3013095 30.07325436 21.63497444 30.09222351 18.9375 30.0625 C16.318125 30.041875 13.69875 30.02125 11 30 C10.67 36.6 10.34 43.2 10 50 C15.23506283 49.34723072 15.23506283 49.34723072 20.46875 48.68359375 C25.34988805 48.0922251 30.083405 47.91060736 35 48 C35 50.64 35 53.28 35 56 C32.65319349 57.17340326 31.24701175 57.12909387 28.6328125 57.1328125 C27.3025 57.13474609 27.3025 57.13474609 25.9453125 57.13671875 C24.54925781 57.13091797 24.54925781 57.13091797 23.125 57.125 C21.78695312 57.13080078 21.78695312 57.13080078 20.421875 57.13671875 C13.51726955 57.12682677 6.93422631 56.57785219 0 56 C0 37.52 0 19.04 0 0 Z " fill="#050605" transform="translate(920,481)"/>
<path d="M0 0 C1 1 1 1 1.0625 4.5625 C1.041875 5.696875 1.02125 6.83125 1 8 C-0.43791516 7.85831863 -1.8753237 7.71148957 -3.3125 7.5625 C-4.11300781 7.48128906 -4.91351563 7.40007812 -5.73828125 7.31640625 C-8 7 -8 7 -11 6 C-12.51766539 5.88367271 -14.0404346 5.82503761 -15.5625 5.8125 C-16.34753906 5.79832031 -17.13257813 5.78414063 -17.94140625 5.76953125 C-20.2243545 5.80832491 -20.2243545 5.80832491 -22 8 C-22.58488562 10.37124598 -22.58488562 10.37124598 -22 13 C-18.53948743 17.00826595 -14.76738798 19.41402674 -10.125 21.8125 C-3.68312218 25.34893717 2.37978509 28.96790394 4.73828125 36.29296875 C5.57325428 41.32810915 4.90557472 44.69173403 2 49 C-1.67126762 53.43084023 -5.80827104 55.75406342 -11.55078125 56.3984375 C-28.70846395 56.29153605 -28.70846395 56.29153605 -33 52 C-33.04063832 50.33382885 -33.042721 48.66611905 -33 47 C-30 46 -30 46 -26.4375 47.4375 C-21.14985133 49.56819761 -15.15309191 50.26233925 -9.765625 48.10546875 C-7.83939529 47.11276676 -7.83939529 47.11276676 -7 45 C-6.49904977 42.12693772 -6.49904977 42.12693772 -7 39 C-10.44296596 34.95210171 -14.28363819 32.53949854 -18.9375 30.125 C-25.10536976 26.7778952 -29.78294893 23.43410214 -33 17 C-33.5668796 11.21782806 -32.59530555 7.45817889 -29 3 C-20.55768665 -3.82570015 -9.97394331 -3.05006748 0 0 Z " fill="#070807" transform="translate(358,482)"/>
<path d="M0 0 C0 2.31 0 4.62 0 7 C-1.43791516 6.85831863 -2.8753237 6.71148957 -4.3125 6.5625 C-5.11300781 6.48128906 -5.91351562 6.40007812 -6.73828125 6.31640625 C-9 6 -9 6 -12 5 C-17.14943278 4.5982661 -17.14943278 4.5982661 -22 6 C-22.67038093 9.24488794 -22.67038093 9.24488794 -22 13 C-19.71174379 15.55105314 -16.90368858 17.21311472 -14 19 C1.97036159 28.91108477 1.97036159 28.91108477 4 35 C4.42800041 40.13600491 4.40430313 43.91844426 1.4296875 48.390625 C-2.51706902 52.83342196 -6.72139391 54.74078696 -12.60546875 55.41015625 C-20.02153859 55.5812391 -26.18196786 54.93880696 -33 52 C-34 51 -34 51 -34.0625 48.4375 C-34.041875 47.633125 -34.02125 46.82875 -34 46 C-30.67795426 44.87020516 -28.97188229 45.13368073 -25.75 46.4375 C-20.55769048 48.30228332 -15.91086997 49.04492768 -10.5625 47.125 C-8.03584514 45.3058085 -7.97128309 43.83408008 -7.4375 40.75 C-8.05553906 36.6297396 -8.26431296 36.30963358 -11.375 33.9375 C-14.56770848 31.80524709 -17.87823281 29.88237667 -21.1875 27.9375 C-26.16076257 25.01160205 -31.1460976 21.73024377 -33 16 C-33.4850824 10.76111007 -32.85631117 7.43220699 -30 3 C-22.23146939 -4.99048863 -9.58084246 -4.27372132 0 0 Z " fill="#060706" transform="translate(729,483)"/>
<path d="M0 0 C1.60184626 -0.1352403 3.20696626 -0.23210847 4.8125 -0.3125 C5.70582031 -0.37050781 6.59914063 -0.42851562 7.51953125 -0.48828125 C10 0 10 0 11.47705078 2.08276367 C13.18845136 5.36098194 14.5531793 8.70712371 15.84765625 12.1640625 C16.1050206 12.83795013 16.36238495 13.51183777 16.62754822 14.20614624 C17.44369792 16.34408458 18.25369996 18.48427142 19.0625 20.625 C19.87523599 22.77272165 20.68939658 24.91984685 21.50816345 27.0652771 C22.01597744 28.39611854 22.52033044 29.72828715 23.02076721 31.06192017 C24.13443455 33.98258631 25.25479999 36.38219999 27 39 C27.34780518 38.09757568 27.69561035 37.19515137 28.05395508 36.26538086 C29.35537682 32.88971074 30.65851871 29.51470679 31.9621582 26.13989258 C32.5241449 24.68434219 33.08567656 23.22861602 33.64672852 21.77270508 C34.45727369 19.66961053 35.2695003 17.56717177 36.08203125 15.46484375 C36.32903275 14.82288559 36.57603424 14.18092743 36.83052063 13.51951599 C41.47195717 1.52804283 41.47195717 1.52804283 43 0 C44.66617115 -0.04063832 46.33388095 -0.042721 48 0 C49.4056403 4.2169209 47.61397995 6.76817466 45.875 10.625 C41.69985435 20.18049796 37.86041496 29.85281782 34.0625 39.5625 C33.1973222 41.77386751 32.33203783 43.98519189 31.46589661 46.19618225 C30.93987204 47.53955965 30.41483323 48.88332357 29.89091492 50.2275238 C28.99212295 52.52530249 28.10408269 54.79183463 27 57 C25.68 57 24.36 57 23 57 C22.65388672 56.18716553 22.65388672 56.18716553 22.30078125 55.35791016 C18.17282319 45.67230104 14.02891951 35.99505566 9.75 26.375 C9.42185303 25.63548096 9.09370605 24.89596191 8.75561523 24.1340332 C6.91376171 19.99862127 5.00437637 15.90212501 3.0625 11.8125 C1.22138472 7.80900099 0.29279175 4.39187621 0 0 Z " fill="#070908" transform="translate(508,481)"/>
<path d="M0 0 C0.8146875 0.00257813 1.629375 0.00515625 2.46875 0.0078125 C3.2834375 0.00523437 4.098125 0.00265625 4.9375 0 C6.96875 0.1328125 6.96875 0.1328125 7.96875 1.1328125 C8.07021725 3.998975 8.10840726 6.84045515 8.1015625 9.70703125 C8.10251923 10.58245071 8.10347595 11.45787018 8.10446167 12.3598175 C8.10514446 14.225312 8.10328335 16.09080885 8.09912109 17.95629883 C8.09385703 20.76324086 8.09901887 23.57001668 8.10546875 26.37695312 C8.10879637 36.34483368 7.88913655 46.20039503 6.96875 56.1328125 C0.03515625 56.23046875 0.03515625 56.23046875 -2.03125 56.1328125 C-3.71137342 54.45268908 -3.15872339 52.38194058 -3.16064453 50.078125 C-3.16379669 49.00030762 -3.16694885 47.92249023 -3.17019653 46.81201172 C-3.1681723 45.63912598 -3.16614807 44.46624023 -3.1640625 43.2578125 C-3.16501923 42.0630127 -3.16597595 40.86821289 -3.16696167 39.63720703 C-3.16764371 37.1051427 -3.16578778 34.57307662 -3.16162109 32.04101562 C-3.15627321 28.1496999 -3.16156533 24.25849961 -3.16796875 20.3671875 C-3.16730797 17.91406224 -3.16602682 15.46093706 -3.1640625 13.0078125 C-3.16608673 11.83492676 -3.16811096 10.66204102 -3.17019653 9.45361328 C-3.16704437 8.3757959 -3.16389221 7.29797852 -3.16064453 6.1875 C-3.15984894 5.23343262 -3.15905334 4.27936523 -3.15823364 3.29638672 C-2.99160405 0.4573164 -2.83618486 0.18544286 0 0 Z " fill="#030403" transform="translate(795.03125,480.8671875)"/>
<path d="M0 0 C1.23556641 0.01740234 1.23556641 0.01740234 2.49609375 0.03515625 C3.32238281 0.04417969 4.14867187 0.05320312 5 0.0625 C5.63808594 0.07410156 6.27617188 0.08570313 6.93359375 0.09765625 C7.8764005 3.26140632 8.02727617 6.0313055 7.95532227 9.32519531 C7.92517784 10.88636078 7.92517784 10.88636078 7.89442444 12.47906494 C7.86738937 13.59585632 7.84035431 14.71264771 7.8125 15.86328125 C7.78888901 17.0118158 7.76527802 18.16035034 7.74095154 19.34368896 C7.66438302 23.01180591 7.58032888 26.67970813 7.49609375 30.34765625 C7.44286628 32.83462491 7.39012592 35.32160405 7.33789062 37.80859375 C7.20877694 43.90508387 7.07294957 50.00139199 6.93359375 56.09765625 C3.63359375 56.09765625 0.33359375 56.09765625 -3.06640625 56.09765625 C-3.09167188 48.28312873 -3.1092373 40.46861167 -3.12133789 32.65405273 C-3.12638008 29.99324144 -3.13321361 27.33243293 -3.1418457 24.67163086 C-3.15391634 20.85660109 -3.15963554 17.04160781 -3.1640625 13.2265625 C-3.16922379 12.02866592 -3.17438507 10.83076935 -3.17970276 9.59657288 C-3.17977829 8.49550705 -3.17985382 7.39444122 -3.17993164 6.26000977 C-3.18215225 5.28516129 -3.18437286 4.31031281 -3.18666077 3.30592346 C-3.02919288 0.4142968 -2.89336287 0.13673738 0 0 Z " fill="#060706" transform="translate(660.06640625,480.90234375)"/>
<path d="M0 0 C0.99 0.33 1.98 0.66 3 1 C3 10.57 3 20.14 3 30 C3.33 30 3.66 30 4 30 C4.33 23.4 4.66 16.8 5 10 C7 12 7 12 7.13525391 15.99072266 C7.09286195 17.71545949 7.03917982 19.43994148 6.9765625 21.1640625 C6.95153656 22.07127045 6.92651062 22.97847839 6.90072632 23.91317749 C6.81839936 26.81749134 6.72185934 29.72113795 6.625 32.625 C6.56677339 34.59111837 6.50946985 36.55726431 6.453125 38.5234375 C6.31280169 43.34934373 6.15972802 48.17469862 6 53 C4.02 53 2.04 53 0 53 C0 35.51 0 18.02 0 0 Z " fill="#0D0E0C" transform="translate(605,484)"/>
<path d="M0 0 C1.37543445 2.75086891 0.60276952 3.91920726 -0.3125 6.8125 C-0.70888672 8.09060547 -0.70888672 8.09060547 -1.11328125 9.39453125 C-1.98987348 11.97024499 -2.96558863 14.48398632 -4 17 C-2.75283203 17.07347656 -2.75283203 17.07347656 -1.48046875 17.1484375 C0.14955078 17.26058594 0.14955078 17.26058594 1.8125 17.375 C2.89144531 17.44460938 3.97039062 17.51421875 5.08203125 17.5859375 C8 18 8 18 11 20 C8.53910088 22.46089912 1.03154122 21.77662328 -2 22 C2.29 22.33 6.58 22.66 11 23 C11 23.33 11 23.66 11 24 C7.75001888 24.02909763 4.50007143 24.04683161 1.25 24.0625 C0.32960938 24.07087891 -0.59078125 24.07925781 -1.5390625 24.08789062 C-2.42851562 24.09111328 -3.31796875 24.09433594 -4.234375 24.09765625 C-5.05131836 24.10289307 -5.86826172 24.10812988 -6.70996094 24.11352539 C-8.93968135 24.00299021 -10.86133755 23.62055567 -13 23 C-12.27833875 18.60211144 -10.88961063 14.52657143 -9.3125 10.375 C-9.08111328 9.70726562 -8.84972656 9.03953125 -8.61132812 8.3515625 C-7.19412834 4.65130197 -6.2161365 3.13215654 -2.79296875 1.0390625 C-1.87128906 0.69617188 -0.94960938 0.35328125 0 0 Z " fill="#0C0E0D" transform="translate(485,498)"/>
<path d="M0 0 C0.33 0.99 0.66 1.98 1 3 C1.55171875 2.83628906 2.1034375 2.67257812 2.671875 2.50390625 C5.26614007 1.94239586 7.59835411 1.90260992 10.25 1.9375 C11.14203125 1.94652344 12.0340625 1.95554687 12.953125 1.96484375 C13.62859375 1.97644531 14.3040625 1.98804688 15 2 C15.33 2.66 15.66 3.32 16 4 C15.08476563 4.06058594 14.16953125 4.12117187 13.2265625 4.18359375 C12.03804687 4.26738281 10.84953125 4.35117187 9.625 4.4375 C7.84996094 4.55931641 7.84996094 4.55931641 6.0390625 4.68359375 C3.08481099 4.81084936 3.08481099 4.81084936 1 6 C6.61 6.33 12.22 6.66 18 7 C18 7.33 18 7.66 18 8 C12.06 8.33 6.12 8.66 0 9 C-0.804375 11.124375 -1.60875 13.24875 -2.4375 15.4375 C-4.875 21.875 -4.875 21.875 -6 23 C-8.33297433 23.04092937 -10.66705225 23.04241723 -13 23 C-12.31808934 18.68670968 -10.87346749 14.81614986 -9.1875 10.8125 C-8.8152832 9.86987305 -8.8152832 9.86987305 -8.43554688 8.90820312 C-7.27761386 6.15332432 -6.50122046 4.31432469 -3.92578125 2.69921875 C-3.29027344 2.46847656 -2.65476562 2.23773437 -2 2 C-1.34 1.34 -0.68 0.68 0 0 Z " fill="#0B0B0C" transform="translate(562,514)"/>
<path d="M0 0 C0.58265625 0.20496094 1.1653125 0.40992188 1.765625 0.62109375 C7.77128366 2.59465139 13.31404442 3.42594072 19.62890625 3.69140625 C20.41136719 3.79324219 21.19382812 3.89507813 22 4 C22.33 4.66 22.66 5.32 23 6 C24.98 5.67 26.96 5.34 29 5 C29 4.34 29 3.68 29 3 C29.99 3.33 30.98 3.66 32 4 C32 4.66 32 5.32 32 6 C24.62275061 10.81779552 17.64311469 10.79498167 9 10 C1.2974359 8.2974359 1.2974359 8.2974359 -1 6 C-1.125 3.5 -1.125 3.5 -1 1 C-0.67 0.67 -0.34 0.34 0 0 Z " fill="#0D0F0D" transform="translate(326,528)"/>
<path d="M0 0 C2.83578597 0.41702735 5.45122146 1.14155967 8.1875 2 C12.78057574 3.20474118 17.27681498 3.63887117 22 4 C23.125 7.75 23.125 7.75 22 10 C14.16987391 10.32675951 7.20757115 10.37636221 0 7 C-1 6 -1 6 -1.125 3.5 C-1 1 -1 1 0 0 Z " fill="#070707" transform="translate(696,528)"/>
<path d="M0 0 C1.4540625 0.0309375 1.4540625 0.0309375 2.9375 0.0625 C2.9375 2.7025 2.9375 5.3425 2.9375 8.0625 C0.59069349 9.23590326 -0.81548825 9.19159387 -3.4296875 9.1953125 C-4.31052002 9.19724609 -5.19135254 9.19917969 -6.09887695 9.20117188 C-7.03562256 9.19666016 -7.97236816 9.19214844 -8.9375 9.1875 C-10.35712036 9.18459961 -10.35712036 9.18459961 -11.80541992 9.18164062 C-18.60442244 9.13977556 -25.30427227 8.84606263 -32.0625 8.0625 C-32.0625 5.7525 -32.0625 3.4425 -32.0625 1.0625 C-31.7325 1.0625 -31.4025 1.0625 -31.0625 1.0625 C-31.0625 2.7125 -31.0625 4.3625 -31.0625 6.0625 C-20.5025 6.0625 -9.9425 6.0625 0.9375 6.0625 C0.4425 4.0825 0.4425 4.0825 -0.0625 2.0625 C-1.3825 1.7325 -2.7025 1.4025 -4.0625 1.0625 C-3.0625 0.0625 -3.0625 0.0625 0 0 Z " fill="#141513" transform="translate(952.0625,528.9375)"/>
<path d="M0 0 C0.66 0 1.32 0 2 0 C2 6.6 2 13.2 2 20 C7.65361466 19.96068346 7.65361466 19.96068346 13.30712891 19.90991211 C17.65478226 19.89474474 21.71953071 20.12035663 26 21 C26 21.66 26 22.32 26 23 C21.85418113 23.02886751 17.70838784 23.04675327 13.5625 23.0625 C11.78649414 23.07506836 11.78649414 23.07506836 9.97460938 23.08789062 C8.84990234 23.09111328 7.72519531 23.09433594 6.56640625 23.09765625 C5.00321655 23.10551147 5.00321655 23.10551147 3.40844727 23.11352539 C1 23 1 23 0 22 C-0.08700342 20.36527118 -0.10701063 18.72685945 -0.09765625 17.08984375 C-0.09443359 16.10048828 -0.09121094 15.11113281 -0.08789062 14.09179688 C-0.07951172 13.05087891 -0.07113281 12.00996094 -0.0625 10.9375 C-0.05798828 9.89271484 -0.05347656 8.84792969 -0.04882812 7.77148438 C-0.03699913 5.1809334 -0.02051689 2.59049441 0 0 Z " fill="#090909" transform="translate(378,484)"/>
<path d="M0 0 C1.40668945 0.00966797 1.40668945 0.00966797 2.84179688 0.01953125 C4.30649414 0.04466797 4.30649414 0.04466797 5.80078125 0.0703125 C6.78884766 0.07933594 7.77691406 0.08835937 8.79492188 0.09765625 C11.2346189 0.1212282 13.67382822 0.15413228 16.11328125 0.1953125 C17.27880744 4.39120677 17.20282157 5.01623186 15.11328125 9.1953125 C5.70828125 7.7103125 5.70828125 7.7103125 -3.88671875 6.1953125 C-3.88671875 5.5353125 -3.88671875 4.8753125 -3.88671875 4.1953125 C-1.80308785 4.33683078 0.28018063 4.48369186 2.36328125 4.6328125 C3.5234375 4.71402344 4.68359375 4.79523438 5.87890625 4.87890625 C8.42305501 5.12779037 10.67281373 5.47646192 13.11328125 6.1953125 C13.44328125 5.2053125 13.77328125 4.2153125 14.11328125 3.1953125 C6.85328125 2.8653125 -0.40671875 2.5353125 -7.88671875 2.1953125 C-4.63281887 0.02604591 -3.75275918 -0.04548799 0 0 Z " fill="#121211" transform="translate(937.88671875,480.8046875)"/>
<path d="M0 0 C0.33 0 0.66 0 1 0 C1 1.98 1 3.96 1 6 C5.02136393 5.88940687 9.04185155 5.7589472 13.0625 5.625 C14.19623047 5.5940625 15.32996094 5.563125 16.49804688 5.53125 C22.32907596 5.32724898 27.4901386 4.96723644 33 3 C31.52027997 6.75269203 31.52027997 6.75269203 29.2578125 7.828125 C19.68872305 9.72091192 9.62316021 9.63412155 0 8 C-0.33 7.67 -0.66 7.34 -1 7 C-0.71269945 4.66055264 -0.38063221 2.3260857 0 0 Z " fill="#0E0F0F" transform="translate(866,529)"/>
<path d="M0 0 C5.97873264 0.11935764 5.97873264 0.11935764 7.08984375 1.23046875 C7.1831808 2.82657857 7.20729747 4.42680303 7.20336914 6.02563477 C7.20329361 7.04661758 7.20321808 8.0676004 7.20314026 9.11952209 C7.19797897 10.22992355 7.19281769 11.34032501 7.1875 12.484375 C7.18608505 13.61495834 7.1846701 14.74554169 7.18321228 15.91038513 C7.17759394 19.5379394 7.16503833 23.16543299 7.15234375 26.79296875 C7.14733111 29.24544182 7.1427678 31.69791585 7.13867188 34.15039062 C7.12761855 40.1771042 7.11086259 46.20378214 7.08984375 52.23046875 C6.75984375 52.23046875 6.42984375 52.23046875 6.08984375 52.23046875 C5.75984375 36.06046875 5.42984375 19.89046875 5.08984375 3.23046875 C3.10984375 3.23046875 1.12984375 3.23046875 -0.91015625 3.23046875 C-0.84828125 4.17921875 -0.78640625 5.12796875 -0.72265625 6.10546875 C-0.78453125 7.13671875 -0.84640625 8.16796875 -0.91015625 9.23046875 C-1.90015625 9.89046875 -2.89015625 10.55046875 -3.91015625 11.23046875 C-3.96415361 9.77253991 -4.00294802 8.31404163 -4.03515625 6.85546875 C-4.06996094 5.63730469 -4.06996094 5.63730469 -4.10546875 4.39453125 C-3.84306396 1.48708619 -2.95151495 0.35611326 0 0 Z " fill="#030403" transform="translate(775.91015625,480.76953125)"/>
<path d="M0 0 C2.31 0.33 4.62 0.66 7 1 C5.68 4.63 4.36 8.26 3 12 C3.66 12.33 4.32 12.66 5 13 C3.35 12.67 1.7 12.34 0 12 C-0.66 13.32 -1.32 14.64 -2 16 C-2 14.68 -2 13.36 -2 12 C-2.99 12.33 -3.98 12.66 -5 13 C-4.54554036 11.58208592 -4.08625056 10.16571954 -3.625 8.75 C-3.24214844 7.56664062 -3.24214844 7.56664062 -2.8515625 6.359375 C-2.04826333 4.13372042 -1.10288338 2.09068328 0 0 Z " fill="#070806" transform="translate(562,504)"/>
<path d="M0 0 C5.86809507 0.52393706 10.54873741 1.76108858 16 4 C16 4.66 16 5.32 16 6 C14.68 6 13.36 6 12 6 C13.32 6.99 14.64 7.98 16 9 C10.17728663 9.59720137 6.0790596 7.528243 1 5 C1 4.34 1 3.68 1 3 C0.34 2.67 -0.32 2.34 -1 2 C-0.67 1.34 -0.34 0.68 0 0 Z " fill="#0B0D0A" transform="translate(671,137)"/>
<path d="M0 0 C12.66970387 -0.3690205 12.66970387 -0.3690205 18 2 C18 3.32 18 4.64 18 6 C12.06 6 6.12 6 0 6 C3.00617269 2.99382731 5.82381598 3.40414684 10 3 C6.37 2.67 2.74 2.34 -1 2 C-0.67 1.34 -0.34 0.68 0 0 Z " fill="#0F100F" transform="translate(877,481)"/>
<path d="M0 0 C2.78515625 0.20703125 2.78515625 0.20703125 6.0625 0.8125 C7.14660156 1.00457031 8.23070312 1.19664062 9.34765625 1.39453125 C12 2 12 2 13 3 C13.04092937 5.33297433 13.04241723 7.66705225 13 10 C10.68197845 9.24327813 8.3715787 8.47065692 6.0625 7.6875 C5.40314453 7.47416016 4.74378906 7.26082031 4.06445312 7.04101562 C2.34313703 6.44958907 0.66668068 5.73136173 -1 5 C-1.33 4.01 -1.66 3.02 -2 2 C-1.34 1.34 -0.68 0.68 0 0 Z " fill="#040504" transform="translate(346,480)"/>
<path d="M0 0 C2 3 2 3 1.8125 6.25 C0.93844531 10.28409858 -0.09908803 13.34440006 -2 17 C-2.99 17.33 -3.98 17.66 -5 18 C-6.43484866 11.30403958 -5.59058175 7.79424351 -2 2 C-1.34 2 -0.68 2 0 2 C0 1.34 0 0.68 0 0 Z " fill="#090909" transform="translate(787,335)"/>
<path d="M0 0 C0.66 0 1.32 0 2 0 C2 9.24 2 18.48 2 28 C-0.97 28 -3.94 28 -7 28 C-6.67 27.34 -6.34 26.68 -6 26 C-4.02 26 -2.04 26 0 26 C0 17.42 0 8.84 0 0 Z " fill="#0C0C0C" transform="translate(378,509)"/>
<path d="M0 0 C4.29 0 8.58 0 13 0 C14 4 14 4 13 6 C9.37 6 5.74 6 2 6 C2 4.35 2 2.7 2 1 C1.34 0.67 0.68 0.34 0 0 Z " fill="#151615" transform="translate(705,532)"/>
<path d="M0 0 C0.66 0 1.32 0 2 0 C4.96255645 4.62899445 4.4351432 8.99029239 3.32421875 14.12109375 C2.58587484 17.09196569 1.81405315 20.04905732 1 23 C0.67 23 0.34 23 0 23 C-0.19635974 19.54210946 -0.38058252 16.08367803 -0.5625 12.625 C-0.61857422 11.64015625 -0.67464844 10.6553125 -0.73242188 9.640625 C-0.80493164 8.22910156 -0.80493164 8.22910156 -0.87890625 6.7890625 C-0.9260376 5.91975098 -0.97316895 5.05043945 -1.02172852 4.15478516 C-1 2 -1 2 0 0 Z " fill="#0E0E0C" transform="translate(757,203)"/>
<path d="M0 0 C-3.5977487 2.39849913 -6.5081831 2.48285134 -10.6875 2.6875 C-11.40558838 2.72657471 -12.12367676 2.76564941 -12.86352539 2.8059082 C-17.73681147 3.03312551 -22.23899456 3.06879714 -27 2 C-27.33 1.34 -27.66 0.68 -28 0 C-23.70868391 -0.19619224 -19.41693898 -0.38048583 -15.125 -0.5625 C-13.90167969 -0.61857422 -12.67835938 -0.67464844 -11.41796875 -0.73242188 C-9.66806641 -0.80493164 -9.66806641 -0.80493164 -7.8828125 -0.87890625 C-6.80402832 -0.9260376 -5.72524414 -0.97316895 -4.61376953 -1.02172852 C-2 -1 -2 -1 0 0 Z " fill="#111111" transform="translate(657,444)"/>
<path d="M0 0 C0.99 0.495 0.99 0.495 2 1 C2 1.99 2 2.98 2 4 C8.95432222 6.04538889 15.77875787 6.58169634 23 7 C23 7.66 23 8.32 23 9 C15.16987391 9.32675951 8.20757115 9.37636221 1 6 C0 5 0 5 -0.0625 2.4375 C-0.041875 1.633125 -0.02125 0.82875 0 0 Z " fill="#161716" transform="translate(325,529)"/>
<path d="M0 0 C2.4377963 -0.05397335 4.87439685 -0.09365616 7.3125 -0.125 C8.00279297 -0.14175781 8.69308594 -0.15851562 9.40429688 -0.17578125 C13.17135396 -0.21217794 14.78431704 -0.14378864 18 2 C17 3 17 3 13.18359375 3.09765625 C11.60153318 3.09098089 10.01948841 3.07901875 8.4375 3.0625 C7.63119141 3.05798828 6.82488281 3.05347656 5.99414062 3.04882812 C3.99606244 3.03700518 1.99802217 3.01906914 0 3 C0 2.01 0 1.02 0 0 Z " fill="#141614" transform="translate(478,516)"/>
<path d="M0 0 C0.99 0.66 1.98 1.32 3 2 C2.42592287 5.28145322 1.50567689 6.82242339 -0.9375 9.0625 C-3.04580822 11.01540467 -4.3672809 12.55092135 -6 15 C-5.61471495 8.83543922 -3.52913975 5.01372252 0 0 Z " fill="#0A0A0A" transform="translate(748,328)"/>
<path d="M0 0 C0.33 0 0.66 0 1 0 C1 5.28 1 10.56 1 16 C2.98 16 4.96 16 7 16 C7.33 16.66 7.66 17.32 8 18 C5.03 18 2.06 18 -1 18 C-1.02684312 15.18743719 -1.04676188 12.37512759 -1.0625 9.5625 C-1.07087891 8.76005859 -1.07925781 7.95761719 -1.08789062 7.13085938 C-1.0965143 5.08704779 -1.0522815 3.04316098 -1 1 C-0.67 0.67 -0.34 0.34 0 0 Z " fill="#101010" transform="translate(741,519)"/>
<path d="M0 0 C2.10478604 0.11409682 4.20884577 0.24165361 6.3125 0.375 C7.48425781 0.44460938 8.65601563 0.51421875 9.86328125 0.5859375 C13 1 13 1 16 3 C15.26394531 3.03738281 14.52789063 3.07476562 13.76953125 3.11328125 C6.39587342 3.52984473 6.39587342 3.52984473 0 7 C0 6.01 0 5.02 0 4 C-0.66 3.67 -1.32 3.34 -2 3 C-1.34 2.01 -0.68 1.02 0 0 Z " fill="#141513" transform="translate(704,484)"/>
<path d="M0 0 C0 0.66 0 1.32 0 2 C-7.59 2 -15.18 2 -23 2 C-22.67 1.34 -22.34 0.68 -22 0 C-18.8671875 -0.44921875 -18.8671875 -0.44921875 -14.875 -0.6875 C-13.57304687 -0.77386719 -12.27109375 -0.86023438 -10.9296875 -0.94921875 C-7.09178681 -0.99881389 -3.76466106 -0.65025964 0 0 Z " fill="#191B19" transform="translate(404,505)"/>
<path d="M0 0 C0.33 0.66 0.66 1.32 1 2 C-0.65 2.33 -2.3 2.66 -4 3 C-4.33 4.32 -4.66 5.64 -5 7 C-7.97 6.505 -7.97 6.505 -11 6 C-11 4.35 -11 2.7 -11 1 C-7.32589215 -0.17571451 -3.83070817 -0.07366746 0 0 Z " fill="#1A1B19" transform="translate(442,506)"/>
<path d="M0 0 C0.99 0.66 1.98 1.32 3 2 C2.01 5.3 1.02 8.6 0 12 C-0.99 12 -1.98 12 -3 12 C-3.125 4.375 -3.125 4.375 -2 1 C-1.34 0.67 -0.68 0.34 0 0 Z " fill="#0E0E0C" transform="translate(508,228)"/>
<path d="M0 0 C0.66 0 1.32 0 2 0 C3 7.75 3 7.75 3 10 C1.35 9.67 -0.3 9.34 -2 9 C-2.33 9.66 -2.66 10.32 -3 11 C-2.53199289 6.94393835 -2.12046792 3.53411321 0 0 Z " fill="#111310" transform="translate(566,495)"/>
<path d="M0 0 C0.5775 0.22816406 1.155 0.45632813 1.75 0.69140625 C0.76 1.02140625 -0.23 1.35140625 -1.25 1.69140625 C-2.83333333 3.10807292 -2.83333333 3.10807292 -4.25 4.69140625 C-4.91 5.35140625 -5.57 6.01140625 -6.25 6.69140625 C-6.91 7.55765625 -7.57 8.42390625 -8.25 9.31640625 C-8.91 10.10015625 -9.57 10.88390625 -10.25 11.69140625 C-10.91 11.69140625 -11.57 11.69140625 -12.25 11.69140625 C-12.58 12.68140625 -12.91 13.67140625 -13.25 14.69140625 C-13.58 14.03140625 -13.91 13.37140625 -14.25 12.69140625 C-11.4970413 7.98843513 -6.09180805 -0.8355084 0 0 Z " fill="#070705" transform="translate(526.25,290.30859375)"/>
<path d="M0 0 C0.33 0 0.66 0 1 0 C2.9126443 4.74510991 3.10351618 8.3027285 2.625 13.375 C2.51414062 14.62023437 2.40328125 15.86546875 2.2890625 17.1484375 C2.19367187 18.08945312 2.09828125 19.03046875 2 20 C1.34 20 0.68 20 0 20 C0 13.4 0 6.8 0 0 Z " fill="#0F0F0F" transform="translate(801,273)"/>
<path d="M0 0 C0.74507812 0.00451172 1.49015625 0.00902344 2.2578125 0.01367188 C4.0885764 0.02540754 5.91929873 0.0433415 7.75 0.0625 C7.75 0.3925 7.75 0.7225 7.75 1.0625 C0.49 2.0525 -6.77 3.0425 -14.25 4.0625 C-12.25 1.0625 -12.25 1.0625 -10.36816406 0.38110352 C-6.92391013 -0.13696372 -3.47326454 -0.03988731 0 0 Z " fill="#0A0A0B" transform="translate(686.25,172.9375)"/>
<path d="M0 0 C0.33 0.99 0.66 1.98 1 3 C-3.37037037 6.03497942 -3.37037037 6.03497942 -6.25 5.875 C-8 5 -8 5 -9 2 C-3.375 0 -3.375 0 0 0 Z " fill="#0C0E0B" transform="translate(451,503)"/>
<path d="M0 0 C0.33 0.99 0.66 1.98 1 3 C1.55171875 2.83628906 2.1034375 2.67257812 2.671875 2.50390625 C5.26614007 1.94239586 7.59835411 1.90260992 10.25 1.9375 C11.14203125 1.94652344 12.0340625 1.95554687 12.953125 1.96484375 C13.62859375 1.97644531 14.3040625 1.98804688 15 2 C15.33 2.66 15.66 3.32 16 4 C8.08 4.495 8.08 4.495 0 5 C-0.33 4.01 -0.66 3.02 -1 2 C-0.67 1.34 -0.34 0.68 0 0 Z " fill="#1B1C1B" transform="translate(562,514)"/>
<path d="M0 0 C0.99 0 1.98 0 3 0 C2.79503906 0.59167969 2.59007812 1.18335938 2.37890625 1.79296875 C1.0002429 5.83660816 -0.31750847 9.76855249 -1 14 C-1.99 14.33 -2.98 14.66 -4 15 C-3.43179252 9.54520815 -2.05362055 5.08940744 0 0 Z " fill="#111110" transform="translate(546,491)"/>
<path d="M0 0 C2 3 2 3 2 7 C-1.21428571 10 -1.21428571 10 -4 10 C-4.20086443 6.28400809 -4.1519437 5.22791555 -2 2 C-1.34 2 -0.68 2 0 2 C0 1.34 0 0.68 0 0 Z " fill="#121311" transform="translate(787,335)"/>
<path d="M0 0 C2.43769218 3.65653827 2.23944439 5.69000101 2 10 C1 11 1 11 -1.5625 11.0625 C-2.366875 11.041875 -3.17125 11.02125 -4 11 C-4 8.03 -4 5.06 -4 2 C-3.67 2 -3.34 2 -3 2 C-3 4.31 -3 6.62 -3 9 C-2.01 9 -1.02 9 0 9 C0 6.03 0 3.06 0 0 Z " fill="#111110" transform="translate(817,526)"/>
<path d="M0 0 C3.18957907 1.06319302 4.08378632 1.85710731 6.25 4.3125 C7.06210937 5.20388672 7.06210937 5.20388672 7.890625 6.11328125 C9 8 9 8 8.671875 10.23046875 C8.45015625 10.81441406 8.2284375 11.39835938 8 12 C7.34 11.67 6.68 11.34 6 11 C5.87625 10.360625 5.7525 9.72125 5.625 9.0625 C5.41875 8.381875 5.2125 7.70125 5 7 C3.67532254 6.3162955 2.34136367 5.65035814 1 5 C-0.25 2.875 -0.25 2.875 -1 1 C-0.67 0.67 -0.34 0.34 0 0 Z " fill="#0D0E0D" transform="translate(455,524)"/>
<path d="M0 0 C0.33 0 0.66 0 1 0 C1.19689005 3.27033928 1.38089008 6.54127941 1.5625 9.8125 C1.61857422 10.74126953 1.67464844 11.67003906 1.73242188 12.62695312 C1.78076172 13.51962891 1.82910156 14.41230469 1.87890625 15.33203125 C1.9260376 16.15421143 1.97316895 16.9763916 2.02172852 17.82348633 C2 20 2 20 1 23 C0.34 23 -0.32 23 -1 23 C-0.67 15.41 -0.34 7.82 0 0 Z " fill="#000000" transform="translate(503,272)"/>
<path d="M0 0 C0.66 0 1.32 0 2 0 C0.4972742 4.20763224 -2.23332995 5.8027758 -6 8 C-6.66 8 -7.32 8 -8 8 C-8 8.66 -8 9.32 -8 10 C-8.66 10 -9.32 10 -10 10 C-9.875 8.25 -9.875 8.25 -9 6 C-3.88888889 2 -3.88888889 2 0 2 C0 1.34 0 0.68 0 0 Z " fill="#0B0B0B" transform="translate(722,279)"/>
<path d="M0 0 C0 0.66 0 1.32 0 2 C-3.14930893 3.04976964 -5.38814456 3.10131595 -8.6875 3.0625 C-9.68136719 3.05347656 -10.67523437 3.04445313 -11.69921875 3.03515625 C-12.83810547 3.01775391 -12.83810547 3.01775391 -14 3 C-10.17190555 -0.82809445 -5.1539534 -0.10105791 0 0 Z " fill="#0D0E0D" transform="translate(600,381)"/>
<path d="M0 0 C2.97 0.495 2.97 0.495 6 1 C2.375 6.875 2.375 6.875 -1 8 C-0.67 5.36 -0.34 2.72 0 0 Z " fill="#0B0C0B" transform="translate(663,190)"/>
<path d="M0 0 C-1.2065625 0.185625 -1.2065625 0.185625 -2.4375 0.375 C-3.283125 0.58125 -4.12875 0.7875 -5 1 C-5.33 1.66 -5.66 2.32 -6 3 C-8.06640625 3.4140625 -8.06640625 3.4140625 -10.5625 3.625 C-11.38878906 3.69976562 -12.21507812 3.77453125 -13.06640625 3.8515625 C-14.02353516 3.92503906 -14.02353516 3.92503906 -15 4 C-12.83963386 1.55023901 -11.23682048 0.50550046 -8.0625 -0.25 C-7.39347656 -0.42015625 -6.72445312 -0.5903125 -6.03515625 -0.765625 C-3.76732882 -1.02679515 -2.16439531 -0.67788667 0 0 Z " fill="#0F110F" transform="translate(588,176)"/>
<path d="M0 0 C8.7595092 -0.44539877 8.7595092 -0.44539877 13 3 C13 3.66 13 4.32 13 5 C8.39146203 4.27991594 4.32762591 2.68704061 0 1 C0 0.67 0 0.34 0 0 Z " fill="#0D0E0D" transform="translate(605,174)"/>
<path d="M0 0 C2.625 0.375 2.625 0.375 5 1 C3.1875 3 3.1875 3 1 5 C0.01 5 -0.98 5 -2 5 C-2.33 5.66 -2.66 6.32 -3 7 C-2.25 2.25 -2.25 2.25 0 0 Z " fill="#0E0E0D" transform="translate(567,183)"/>
<path d="M0 0 C-3.96 3.465 -3.96 3.465 -8 7 C-8.66 6.67 -9.32 6.34 -10 6 C-8.20404732 1.26521567 -5.07984355 -1.69328118 0 0 Z " fill="#0B0B0B" transform="translate(663,182)"/>
<path d="M0 0 C1.16402344 0.13148438 1.16402344 0.13148438 2.3515625 0.265625 C4.375 0.75 4.375 0.75 6.375 2.75 C3.36666904 4.25416548 1.02538422 3.35839737 -2.25 2.8125 C-3.43851562 2.61785156 -4.62703125 2.42320312 -5.8515625 2.22265625 C-7.22441406 1.98869141 -7.22441406 1.98869141 -8.625 1.75 C-5.5186005 -0.09398144 -3.57218528 -0.4539901 0 0 Z " fill="#141717" transform="translate(440.625,485.25)"/>
<path d="M0 0 C0.66 0 1.32 0 2 0 C0.55049545 3.7910119 -1.15172566 7.3874638 -3 11 C-3.33 11 -3.66 11 -4 11 C-3.25531915 3.25531915 -3.25531915 3.25531915 0 0 Z " fill="#121312" transform="translate(558,516)"/>
<path d="M0 0 C2.96271413 4.4440712 1.40209176 7.90018745 0.4375 12.9375 C0.2209375 13.9584375 0.2209375 13.9584375 0 15 C-0.33 15 -0.66 15 -1 15 C-1.02715383 13.25008666 -1.04646551 11.50005055 -1.0625 9.75 C-1.07410156 8.77546875 -1.08570313 7.8009375 -1.09765625 6.796875 C-1.01195577 4.34241322 -0.70706066 2.33831086 0 0 Z " fill="#0D0E0D" transform="translate(504,254)"/>
<path d="M0 0 C1.31716987 3.95150962 0.19076223 6.07748911 -1 10 C-1 10.99 -1 11.98 -1 13 C-1.66 13 -2.32 13 -3 13 C-3.125 5.375 -3.125 5.375 -2 2 C-1.34 2 -0.68 2 0 2 C0 1.34 0 0.68 0 0 Z " fill="#0D0D0D" transform="translate(778,252)"/>
<path d="M0 0 C0.33 0.99 0.66 1.98 1 3 C-0.65 4.65 -2.3 6.3 -4 8 C-4.66 7.67 -5.32 7.34 -6 7 C-6 6.01 -6 5.02 -6 4 C-3.5625 2.375 -3.5625 2.375 -1 1 C-0.67 0.67 -0.34 0.34 0 0 Z " fill="#0B0D0B" transform="translate(766,244)"/>
<path d="M0 0 C0.66 0.33 1.32 0.66 2 1 C0.83857315 5.35535069 -0.07699505 7.64619703 -4 10 C-4.41176754 6.39703406 -4.1535853 5.21597933 -2 2.1875 C-1.34 1.465625 -0.68 0.74375 0 0 Z " fill="#0E0E0D" transform="translate(647,193)"/>
<path d="M0 0 C0.66 0 1.32 0 2 0 C2 0.99 2 1.98 2 3 C3.98 3.66 5.96 4.32 8 5 C8 5.33 8 5.66 8 6 C2.25 6.125 2.25 6.125 0 5 C0 3.35 0 1.7 0 0 Z " fill="#171717" transform="translate(696,530)"/>
<path d="M0 0 C0.33 0.99 0.66 1.98 1 3 C-1.88087546 5.40072955 -4.56404834 7.47291037 -8 9 C-6.4169423 4.7257442 -3.49431596 2.73468206 0 0 Z " fill="#0A0A09" transform="translate(617,230)"/>
<path d="M0 0 C0.99 0.99 1.98 1.98 3 3 C2.319375 3.5878125 2.319375 3.5878125 1.625 4.1875 C-0.27642919 6.30832487 -1.06204028 8.33042235 -2 11 C-2.33 11 -2.66 11 -3 11 C-2.67 8.03 -2.34 5.06 -2 2 C-1.34 2 -0.68 2 0 2 C0 1.34 0 0.68 0 0 Z " fill="#0C0D0A" transform="translate(555,201)"/>
<path d="M0 0 C1.0625 1.875 1.0625 1.875 2 4 C1.67 4.66 1.34 5.32 1 6 C-0.32 6 -1.64 6 -3 6 C-2.625 3.5625 -2.625 3.5625 -2 1 C-1.34 0.67 -0.68 0.34 0 0 Z " fill="#0B0C0A" transform="translate(778,354)"/>
<path d="M0 0 C0.66 0 1.32 0 2 0 C1.71640113 1.4391134 1.42278601 2.87625518 1.125 4.3125 C0.88136719 5.51326172 0.88136719 5.51326172 0.6328125 6.73828125 C0 9 0 9 -2 12 C-1.85904936 10.3745692 -1.71207913 8.74965949 -1.5625 7.125 C-1.48128906 6.22007812 -1.40007812 5.31515625 -1.31640625 4.3828125 C-1 2 -1 2 0 0 Z " fill="#0C0C0D" transform="translate(486,225)"/>
<path d="M0 0 C0.33 0 0.66 0 1 0 C0.25 6.625 0.25 6.625 -2 10 C-2.66 10 -3.32 10 -4 10 C-3.52449439 8.51965236 -3.04448784 7.04074979 -2.5625 5.5625 C-2.29566406 4.73878906 -2.02882813 3.91507813 -1.75390625 3.06640625 C-1 1 -1 1 0 0 Z " fill="#0C0C0A" transform="translate(625,214)"/>
<path d="M0 0 C0.33 0 0.66 0 1 0 C1 1.98 1 3.96 1 6 C-1.97 6 -4.94 6 -8 6 C-7.34 5.34 -6.68 4.68 -6 4 C-3.875 4.375 -3.875 4.375 -2 5 C-1.34 3.35 -0.68 1.7 0 0 Z " fill="#0C100E" transform="translate(431,531)"/>
<path d="M0 0 C0.6875 1.8125 0.6875 1.8125 1 4 C-0.3125 5.75 -0.3125 5.75 -2 7 C-2.66 7 -3.32 7 -4 7 C-3.67 5.02 -3.34 3.04 -3 1 C-2.01 0.67 -1.02 0.34 0 0 Z " fill="#0B0B0B" transform="translate(794,310)"/>
<path d="M0 0 C6.625 0.75 6.625 0.75 10 3 C10 3.66 10 4.32 10 5 C8.51800098 4.55090939 7.03944764 4.09043436 5.5625 3.625 C4.73878906 3.36976563 3.91507813 3.11453125 3.06640625 2.8515625 C1 2 1 2 0 0 Z " fill="#0B0B0A" transform="translate(695,181)"/>
<path d="M0 0 C2.5 1.375 2.5 1.375 5 3 C5 3.66 5 4.32 5 5 C5.66 5 6.32 5 7 5 C7 5.66 7 6.32 7 7 C5.02 6.34 3.04 5.68 1 5 C0.67 3.35 0.34 1.7 0 0 Z " fill="#0E0F0D" transform="translate(581,243)"/>
<path d="M0 0 C-0.33 0.99 -0.66 1.98 -1 3 C-3.64 3.33 -6.28 3.66 -9 4 C-6.31059578 0.90718514 -4.07621501 0 0 0 Z " fill="#0B0C0B" transform="translate(600,143)"/>
<path d="M0 0 C0.99 0.33 1.98 0.66 3 1 C3 1.66 3 2.32 3 3 C0.64561267 4.42944945 -0.48032433 5.08661261 -3.25 4.625 C-3.8275 4.41875 -4.405 4.2125 -5 4 C-3.35 3.34 -1.7 2.68 0 2 C0 1.34 0 0.68 0 0 Z " fill="#141413" transform="translate(355,531)"/>
<path d="M0 0 C2.625 -0.1875 2.625 -0.1875 5 0 C5.33 0.99 5.66 1.98 6 3 C3.36 3 0.72 3 -2 3 C-1.34 2.01 -0.68 1.02 0 0 Z " fill="#050504" transform="translate(551,481)"/>
<path d="M0 0 C2.64 0.33 5.28 0.66 8 1 C7.67 1.66 7.34 2.32 7 3 C4.36 3 1.72 3 -1 3 C-0.67 2.01 -0.34 1.02 0 0 Z " fill="#0B0B0B" transform="translate(573,381)"/>
<path d="M0 0 C0.33 0.66 0.66 1.32 1 2 C1.99 2 2.98 2 4 2 C4 3.32 4 4.64 4 6 C2.68 5.67 1.36 5.34 0 5 C-0.5625 3.0625 -0.5625 3.0625 -1 1 C-0.67 0.67 -0.34 0.34 0 0 Z " fill="#11110D" transform="translate(756,322)"/>
<path d="M0 0 C4.875 1.75 4.875 1.75 6 4 C5.67 4.66 5.34 5.32 5 6 C4.01 5.67 3.02 5.34 2 5 C0.8125 2.4375 0.8125 2.4375 0 0 Z " fill="#0C0D0B" transform="translate(609,271)"/>
<path d="M0 0 C0.99 0 1.98 0 3 0 C2.6875 2.375 2.6875 2.375 2 5 C1.01 5.66 0.02 6.32 -1 7 C-0.67 4.69 -0.34 2.38 0 0 Z " fill="#0C0D0D" transform="translate(593,252)"/>
<path d="M0 0 C-2 2 -2 2 -5.125 2.125 C-6.548125 2.063125 -6.548125 2.063125 -8 2 C-8.33 1.34 -8.66 0.68 -9 0 C-5.93109813 -1.53445094 -3.29905734 -0.54984289 0 0 Z " fill="#1A1B19" transform="translate(347,485)"/>
<path d="M0 0 C0.33 0 0.66 0 1 0 C1 2.31 1 4.62 1 7 C0.34 7 -0.32 7 -1 7 C-1 7.66 -1 8.32 -1 9 C-1.99 8.67 -2.98 8.34 -4 8 C-3.34 7.67 -2.68 7.34 -2 7 C-1.26924352 4.6859378 -0.59861742 2.35171131 0 0 Z " fill="#0E0E0C" transform="translate(781,332)"/>
<path d="M0 0 C0.66 0.33 1.32 0.66 2 1 C0.71034824 2.37562854 -0.62689293 3.70766393 -2 5 C-2.66 5 -3.32 5 -4 5 C-4.33 5.99 -4.66 6.98 -5 8 C-5.33 7.34 -5.66 6.68 -6 6 C-4.75 3.4375 -4.75 3.4375 -3 1 C-2.01 0.67 -1.02 0.34 0 0 Z " fill="#0D0D0C" transform="translate(518,297)"/>
<path d="M0 0 C0.66 0 1.32 0 2 0 C1.75 1.875 1.75 1.875 1 4 C-1.0625 5.25 -1.0625 5.25 -3 6 C-2.42655063 3.13275314 -2.1385485 2.1385485 0 0 Z " fill="#0B0B0A" transform="translate(524,181)"/>
<path d="M0 0 C2.31 0 4.62 0 7 0 C7 0.99 7 1.98 7 3 C4.69 2.67 2.38 2.34 0 2 C0 1.34 0 0.68 0 0 Z " fill="#111211" transform="translate(603,181)"/>
<path d="M0 0 C-3.4352048 2.29013653 -4.985331 2.17842973 -9 2 C-6.98558063 -2.02883874 -3.72407517 -0.90585612 0 0 Z " fill="#0E0F0E" transform="translate(687,182)"/>
<path d="M0 0 C4 0 4 0 7 1 C7 1.66 7 2.32 7 3 C5.1875 3.625 5.1875 3.625 3 4 C2.01 3.34 1.02 2.68 0 2 C0 1.34 0 0.68 0 0 Z " fill="#050D0C" transform="translate(543,411)"/>
<path d="M0 0 C0.66 0.66 1.32 1.32 2 2 C0.68 3.65 -0.64 5.3 -2 7 C-2.66 6.01 -3.32 5.02 -4 4 C-2.68 2.68 -1.36 1.36 0 0 Z " fill="#0A0A09" transform="translate(570,315)"/>
<path d="M0 0 C2.12508244 3.18762365 2.5020163 5.26512223 3 9 C2.67 8.34 2.34 7.68 2 7 C1.34 7 0.68 7 0 7 C-0.38133299 5.0085944 -0.71325582 3.00720923 -1 1 C-0.67 0.67 -0.34 0.34 0 0 Z " fill="#121313" transform="translate(775,286)"/>
<path d="M0 0 C0.33 0 0.66 0 1 0 C0.67 2.64 0.34 5.28 0 8 C-0.99 8.33 -1.98 8.66 -3 9 C-2.01 6.03 -1.02 3.06 0 0 Z " fill="#0C0C0B" transform="translate(505,215)"/>
<path d="" fill="#000000" transform="translate(0,0)"/>
<path d="" fill="#000000" transform="translate(0,0)"/>
<path d="" fill="#000000" transform="translate(0,0)"/>
<path d="" fill="#000000" transform="translate(0,0)"/>
</svg>
